<svg width="355" height="218" viewBox="0 0 355 218" fill="none" xmlns="http://www.w3.org/2000/svg">
<path d="M223.103 195.017H0V204.056H223.103V195.017Z" fill="#F15E5D"/>
<path d="M223.103 193.824H0V196.55H223.103V193.824Z" fill="#060A16"/>
<path d="M81.5808 106.527H30.5667C30.5667 106.527 6.94694 107.637 15.7842 134.51C24.6215 161.383 33.8106 194.211 33.8106 194.211L115.391 194.933L81.5808 106.527Z" fill="#F15E5D"/>
<path d="M40.6504 180.512C40.4592 180.513 40.2729 180.451 40.1193 180.337C39.9656 180.223 39.8529 180.063 39.7977 179.88L23.0176 125.894C22.962 125.672 22.9934 125.438 23.1053 125.238C23.2172 125.039 23.4012 124.89 23.6194 124.822C23.8376 124.754 24.0736 124.772 24.2788 124.873C24.484 124.974 24.643 125.149 24.723 125.363L41.5091 179.361C41.578 179.588 41.5539 179.834 41.4422 180.045C41.3304 180.255 41.1401 180.412 40.9128 180.482C40.8274 180.506 40.7389 180.516 40.6504 180.512V180.512Z" fill="#060A16"/>
<path d="M199.638 42.6489L159.25 64.582L156.972 65.8171L134.599 21.8734L178.326 0L179.197 1.73627L199.638 42.6489Z" fill="#0C111D"/>
<path d="M199.644 42.6489L159.256 64.582L156.197 58.5617L155.702 57.5952L152.589 51.4735V51.4675L152.047 50.4114L146.954 40.3995L146.101 38.7229L138.093 22.9772L179.202 1.73627L190.02 23.3829L190.729 24.8089L192.667 28.6812L193.198 29.7492L199.644 42.6489Z" fill="#4DB381"/>
<path d="M335.238 69.6774L306.979 106.455L305.84 107.941L267.623 78.8659L297.754 39.7074L300.032 41.5272L335.238 69.6774Z" fill="#0C111D"/>
<path d="M335.244 69.6774L321.929 87.0103L320.414 88.9733L306.985 106.455L271.672 78.317L280.688 66.6226L281.785 65.2025L300.038 41.5272L335.244 69.6774Z" fill="#FBC726"/>
<g opacity="0.53">
<path opacity="0.53" d="M178.523 37.5893C178.528 37.6209 178.528 37.6531 178.523 37.6847C178.465 37.8316 178.352 37.9498 178.208 38.0136C178.064 38.0773 177.901 38.0813 177.753 38.0248V38.0248L176.293 37.4282L150.973 27.6072C150.834 27.5529 150.685 27.5293 150.537 27.5381C150.388 27.5469 150.243 27.5878 150.111 27.6582C149.98 27.7285 149.865 27.8265 149.775 27.9454C149.685 28.0643 149.622 28.2014 149.59 28.3471L146.954 40.3995L146.095 38.7229L148.421 28.0905C148.488 27.7757 148.624 27.4793 148.817 27.2221C149.011 26.9649 149.258 26.7531 149.542 26.6014C149.826 26.4497 150.14 26.3619 150.461 26.3439C150.782 26.3259 151.104 26.3783 151.403 26.4974L167.92 32.9354L169.047 33.3769L177.634 36.7241L178.159 36.927C178.287 36.9784 178.393 37.0724 178.459 37.1932C178.525 37.3139 178.548 37.4538 178.523 37.5893V37.5893Z" fill="white"/>
</g>
<g opacity="0.53">
<path opacity="0.53" d="M190.729 24.809L173.299 20.0357C173.127 19.9854 172.947 19.9711 172.77 19.9936C172.592 20.0162 172.421 20.0752 172.267 20.167C172.115 20.2574 171.982 20.3791 171.88 20.5241C171.777 20.669 171.706 20.834 171.671 21.0083L169.053 33.3769L169.024 33.5082C168.994 33.6439 168.919 33.7652 168.81 33.8512C168.701 33.9373 168.566 33.9826 168.427 33.9796C168.386 33.9854 168.344 33.9854 168.302 33.9796C168.148 33.9466 168.013 33.8541 167.927 33.7222C167.841 33.5903 167.811 33.4297 167.843 33.2755L167.914 32.9473L170.49 20.7696C170.562 20.4354 170.702 20.1196 170.901 19.8417C171.099 19.5638 171.353 19.3297 171.646 19.154C171.939 18.9783 172.265 18.8648 172.604 18.8204C172.943 18.7761 173.287 18.8018 173.615 18.8961L190.014 23.3949L190.729 24.809Z" fill="white"/>
</g>
<g opacity="0.53">
<path opacity="0.53" d="M193.198 29.7492L178.523 37.6012H178.517L177.712 38.0308L152.589 51.4675L152.047 50.4114L176.251 37.464L177.634 36.7241L192.667 28.6812L193.198 29.7492Z" fill="white"/>
</g>
<g opacity="0.53">
<path opacity="0.53" d="M156.752 58.5677C156.644 58.568 156.539 58.5393 156.447 58.4847C156.354 58.4301 156.278 58.3516 156.227 58.2574C156.189 58.1885 156.165 58.1128 156.157 58.0347C156.148 57.9565 156.155 57.8775 156.178 57.8021C156.2 57.7267 156.237 57.6564 156.286 57.5953C156.335 57.5342 156.396 57.4834 156.465 57.446L176.066 46.909C176.135 46.8715 176.211 46.848 176.29 46.84C176.368 46.8319 176.447 46.8395 176.522 46.8622C176.598 46.885 176.668 46.9225 176.729 46.9725C176.79 47.0225 176.84 47.0841 176.877 47.1537C176.951 47.293 176.967 47.456 176.921 47.6069C176.875 47.7579 176.771 47.8845 176.632 47.9592L157.032 58.5021C156.945 58.5465 156.849 58.569 156.752 58.5677Z" fill="white"/>
</g>
<path d="M154.36 195.106L34.3414 194.277C28.7123 185.989 35.0093 169.522 37.1083 166.867C39.2073 164.212 46.8281 154.379 51.4674 134.051C55.4388 116.64 70.8236 110.781 75.1707 109.45C75.9041 109.23 76.3215 109.134 76.3215 109.134C76.2857 108.752 76.2619 108.382 76.244 108.013C75.4151 91.6343 90.0426 86.3241 90.0426 86.3241L125.875 102.678C126.737 104.406 127.455 106.202 128.021 108.048C128.035 108.093 128.051 108.137 128.069 108.18C128.379 108.926 128.921 109.554 129.614 109.97C132.202 111.76 137.497 113.478 144.122 122.362C152.798 134.003 154.36 195.106 154.36 195.106Z" fill="#0C111D"/>
<path d="M122.696 148.382C121.265 146.795 118.779 146.694 117.508 148.257C116.805 149.128 116.495 150.339 115.72 151.151C115.367 151.544 114.934 151.857 114.451 152.068C113.968 152.28 113.445 152.387 112.917 152.38C111.93 152.316 110.996 151.906 110.281 151.222C109.482 150.5 109.005 149.432 108.212 148.71C107.839 148.392 107.403 148.154 106.932 148.013C106.462 147.872 105.968 147.831 105.481 147.893C104.993 147.954 104.524 148.116 104.104 148.369C103.683 148.622 103.319 148.959 103.036 149.361C101.617 151.556 102.631 155.107 104.652 156.556C106.204 157.665 107.582 158.998 108.743 160.512C109.359 161.323 109.911 162.181 110.394 163.078C110.788 163.993 111.38 164.809 112.13 165.464H112.16C112.86 165.981 113.717 166.24 114.586 166.197C115.455 166.155 116.283 165.814 116.93 165.232L116.96 165.202C117.842 164.295 118.051 163.114 118.498 161.867C119.378 159.489 120.809 157.355 122.672 155.638C124.628 153.752 124.33 150.202 122.696 148.382Z" fill="#EEEEEE"/>
<path d="M113.508 150.237C115.752 149.803 117.14 147.222 116.609 144.472C116.078 141.722 113.828 139.844 111.584 140.278C109.34 140.712 107.951 143.293 108.483 146.043C109.014 148.793 111.264 150.671 113.508 150.237Z" fill="#EEEEEE"/>
<path d="M129.614 109.981C128.498 116.861 124.557 128.287 110.729 130.518C109.524 130.714 108.305 130.812 107.085 130.811C99.9771 130.811 92.6127 127.541 85.5822 121.222C81.8229 117.83 78.4944 113.989 75.6716 109.785L75.1707 109.456C75.9041 109.236 76.3215 109.14 76.3215 109.14C76.2858 108.758 76.2619 108.388 76.244 108.018L76.9775 108.496L77.0788 108.663C77.2279 108.896 91.8613 131.759 110.472 128.764C118.164 127.523 123.489 123.15 126.316 115.763C127.229 113.335 127.83 110.801 128.105 108.221C128.411 108.952 128.939 109.568 129.614 109.981V109.981Z" fill="#060A16"/>
<path d="M78.9213 171.485C78.85 171.494 78.7779 171.494 78.7067 171.485C78.5924 171.457 78.4847 171.408 78.3898 171.339C78.2948 171.269 78.2145 171.182 78.1535 171.082C78.0925 170.981 78.052 170.87 78.0344 170.754C78.0167 170.637 78.0223 170.519 78.0507 170.405C80.3405 160.858 70.0364 128.878 69.929 128.555C69.8563 128.329 69.8763 128.083 69.9848 127.872C70.0933 127.66 70.2813 127.5 70.5074 127.428C70.7336 127.355 70.9794 127.375 71.1907 127.484C71.4021 127.592 71.5617 127.78 71.6345 128.006C72.0638 129.337 82.1951 160.823 79.786 170.822C79.7357 171.013 79.6235 171.182 79.4669 171.302C79.3104 171.422 79.1185 171.486 78.9213 171.485V171.485Z" fill="#060A16"/>
<path d="M47.001 174.361C46.7988 174.363 46.6019 174.296 46.4424 174.172C46.2828 174.048 46.1699 173.874 46.1222 173.677C46.0745 173.48 46.0947 173.274 46.1796 173.09C46.2644 172.906 46.4089 172.757 46.5895 172.666C49.9637 171.038 53.4861 169.737 57.1084 168.782C62.7077 167.29 70.8235 166.073 77.8599 168.746C77.9742 168.785 78.0795 168.846 78.1696 168.926C78.2597 169.006 78.3326 169.104 78.384 169.213C78.4355 169.322 78.4644 169.44 78.4689 169.561C78.4735 169.681 78.4537 169.801 78.4106 169.914C78.3676 170.027 78.3023 170.129 78.2185 170.216C78.1348 170.303 78.0344 170.372 77.9233 170.419C77.8123 170.466 77.6929 170.49 77.5724 170.489C77.4518 170.489 77.3326 170.464 77.2219 170.417C64.6099 165.614 47.5734 174.176 47.4065 174.265C47.2806 174.328 47.1417 174.361 47.001 174.361V174.361Z" fill="#060A16"/>
<path d="M65.1467 165.464C64.9758 165.466 64.8081 165.419 64.6636 165.327L56.2796 159.957C56.1797 159.894 56.0933 159.811 56.0254 159.715C55.9574 159.618 55.9092 159.508 55.8834 159.393C55.8577 159.277 55.8549 159.158 55.8753 159.041C55.8957 158.925 55.9388 158.813 56.0023 158.713C56.0657 158.613 56.1482 158.527 56.245 158.459C56.3418 158.391 56.451 158.343 56.5665 158.317C56.6819 158.291 56.8013 158.288 56.9179 158.309C57.0344 158.329 57.1457 158.372 57.2456 158.436L65.6297 163.806C65.7917 163.911 65.9155 164.065 65.9827 164.246C66.05 164.427 66.0569 164.624 66.0026 164.81C65.9483 164.995 65.8356 165.157 65.6813 165.273C65.5271 165.389 65.3395 165.452 65.1467 165.453V165.464Z" fill="#060A16"/>
<path d="M140.287 143.794C140.057 143.794 139.836 143.706 139.669 143.547C139.503 143.388 139.404 143.171 139.393 142.941L138.48 123.251C138.469 123.014 138.553 122.782 138.713 122.606C138.873 122.43 139.096 122.325 139.333 122.314C139.57 122.303 139.802 122.387 139.978 122.547C140.153 122.707 140.258 122.93 140.269 123.168L141.182 142.857C141.187 142.975 141.17 143.092 141.13 143.203C141.09 143.314 141.029 143.416 140.95 143.503C140.87 143.59 140.775 143.66 140.668 143.71C140.562 143.76 140.447 143.789 140.329 143.794H140.287Z" fill="#060A16"/>
<path d="M73.4949 172.069C73.4949 172.069 78.7961 172.809 84.2285 166.157C89.6608 159.504 97.556 157.523 103.907 159.593C110.257 161.664 118.069 166.527 118.069 169.235C118.069 171.944 107.932 167.004 107.932 167.004L115.576 178.34L101.694 187.463L94.2166 179.593C94.2166 179.593 89.5356 184.026 87.6572 183.412C87.6572 183.412 85.9339 188.961 83.2267 189.331C80.5194 189.701 66.7209 187.111 73.4949 172.069Z" fill="#F9B387"/>
<path d="M143.269 137.702C143.269 137.702 146.531 124.176 145.481 121.378C144.432 118.579 141.987 114.385 143.269 105.638C144.551 96.8909 147.7 88.2692 148.976 87.2191C150.252 86.169 152.357 87.4637 152.357 89.0091C152.357 90.5544 150.866 100.274 150.866 100.274C150.866 100.274 155.297 99.1104 157.044 101.909C157.044 101.909 162.053 102.261 162.053 104.82C162.053 104.82 164.384 105.059 163.8 109.134C163.8 109.134 166.597 108.639 166.948 112.267L153.782 138.985L143.269 137.702Z" fill="#F9B387"/>
<path d="M81.0979 189.939C79.1011 189.867 77.1657 189.23 75.5164 188.102C70.5373 184.945 69.4758 178.812 72.684 171.706C72.7901 171.504 72.9691 171.351 73.1844 171.276C73.3997 171.202 73.6351 171.213 73.8427 171.307C74.0503 171.4 74.2144 171.57 74.3016 171.78C74.3888 171.991 74.3924 172.226 74.3119 172.439C72.9642 175.423 70.4836 182.791 76.4705 186.586C78.82 188.078 81.0382 188.507 82.8928 187.839C84.7473 187.171 86.0174 185.578 86.8165 183.131C86.8533 183.02 86.9117 182.917 86.9884 182.827C87.0651 182.738 87.1586 182.665 87.2635 182.612C87.3685 182.559 87.4828 182.528 87.6 182.519C87.7171 182.51 87.8349 182.525 87.9465 182.562C88.0581 182.599 88.1613 182.657 88.2503 182.734C88.3393 182.81 88.4124 182.904 88.4652 183.009C88.5181 183.114 88.5498 183.228 88.5585 183.346C88.5672 183.463 88.5528 183.581 88.5159 183.692C87.538 186.676 85.8027 188.698 83.501 189.528C82.7296 189.802 81.9166 189.941 81.0979 189.939V189.939Z" fill="#060A16"/>
<path d="M115.6 179.253C115.453 179.254 115.308 179.219 115.178 179.15C115.048 179.082 114.937 178.982 114.855 178.859L107.204 167.523C107.071 167.326 107.022 167.084 107.067 166.851C107.113 166.618 107.249 166.412 107.446 166.279C107.643 166.146 107.884 166.097 108.117 166.142C108.351 166.187 108.556 166.324 108.689 166.521L116.34 177.857C116.43 177.992 116.483 178.148 116.492 178.31C116.5 178.472 116.465 178.634 116.389 178.777C116.313 178.921 116.199 179.041 116.06 179.125C115.922 179.208 115.762 179.253 115.6 179.253V179.253Z" fill="#4E273F"/>
<path d="M134.348 164.57C134.348 164.57 137.193 137.971 143.889 133.711C156.221 135.96 158.385 137.792 158.385 137.792L156.513 165.494L134.348 164.57Z" fill="#060A16"/>
<path d="M157.36 166.425L133.358 165.423L133.46 164.474C133.573 163.37 136.441 137.392 143.424 132.953L143.716 132.762L144.062 132.827C156.275 135.053 158.737 136.903 158.97 137.105L159.316 137.398L157.36 166.425ZM135.362 163.716L155.714 164.564L157.503 138.263C156.531 137.75 153.257 136.342 144.134 134.683C139.274 138.305 136.262 155.96 135.362 163.716Z" fill="#060A16"/>
<path d="M144.784 112.911C144.784 112.911 153.174 99.7847 153.174 96.8969C153.174 94.009 162.494 96.867 153.174 112.911C153.174 112.911 159.697 116.187 160.049 121.927" fill="#F9B387"/>
<path d="M160.049 122.523C159.897 122.523 159.75 122.466 159.639 122.361C159.529 122.257 159.462 122.114 159.453 121.962C159.125 116.64 152.965 113.478 152.893 113.442L152.297 113.162L152.613 112.613C158.618 102.273 156.429 98.293 155.595 97.3085C154.945 96.5269 154.247 96.4135 153.937 96.5269C153.829 96.5627 153.71 96.6403 153.71 96.8968C153.71 99.8801 146.095 111.879 145.225 113.233C145.124 113.304 145.005 113.342 144.882 113.342C144.76 113.342 144.64 113.304 144.54 113.234C144.439 113.163 144.363 113.063 144.321 112.948C144.28 112.833 144.274 112.707 144.306 112.589C147.64 107.38 152.601 98.9076 152.601 96.8968C152.587 96.5721 152.678 96.2516 152.861 95.9828C153.043 95.7141 153.308 95.5115 153.615 95.4052C154.545 95.0651 155.738 95.5245 156.596 96.5448C157.789 97.9648 159.87 102.35 154.02 112.684C155.666 113.645 160.365 116.825 160.669 121.891C160.679 122.048 160.626 122.203 160.522 122.321C160.418 122.44 160.272 122.512 160.115 122.523H160.049Z" fill="#F15F5A"/>
<path d="M105.94 185.942C105.851 185.941 105.762 185.921 105.682 185.881C105.601 185.842 105.53 185.785 105.475 185.715L93.9782 171.061C93.9293 170.999 93.8931 170.929 93.8717 170.853C93.8504 170.777 93.8442 170.698 93.8537 170.619C93.8631 170.541 93.8879 170.466 93.9267 170.397C93.9654 170.328 94.0174 170.268 94.0795 170.22C94.2038 170.123 94.3614 170.079 94.5178 170.098C94.6743 170.117 94.8168 170.197 94.9143 170.321L106.411 184.963C106.508 185.088 106.552 185.245 106.533 185.402C106.514 185.558 106.434 185.701 106.31 185.799C106.206 185.887 106.076 185.938 105.94 185.942Z" fill="#F15F5A"/>
<path d="M111.551 183.114C111.461 183.114 111.371 183.094 111.29 183.055C111.208 183.015 111.136 182.958 111.08 182.887L98.695 167.064C98.5977 166.939 98.5541 166.78 98.5737 166.623C98.5932 166.466 98.6744 166.323 98.7994 166.225C98.9243 166.128 99.0828 166.084 99.2399 166.104C99.397 166.123 99.5399 166.205 99.6372 166.33L112.022 182.171C112.119 182.295 112.163 182.453 112.144 182.609C112.125 182.766 112.045 182.909 111.921 183.006C111.813 183.082 111.683 183.12 111.551 183.114Z" fill="#F15F5A"/>
<path d="M114.819 178.657C114.721 178.657 114.625 178.633 114.539 178.587C114.452 178.541 114.379 178.475 114.324 178.394L104.652 164.08C104.608 164.015 104.577 163.942 104.562 163.865C104.546 163.788 104.546 163.709 104.561 163.632C104.576 163.555 104.606 163.482 104.649 163.416C104.692 163.351 104.748 163.295 104.813 163.251C104.878 163.207 104.951 163.176 105.028 163.161C105.105 163.145 105.184 163.145 105.261 163.16C105.338 163.175 105.411 163.205 105.476 163.248C105.542 163.291 105.598 163.347 105.642 163.412L115.308 177.732C115.368 177.821 115.403 177.925 115.409 178.033C115.415 178.141 115.392 178.248 115.342 178.344C115.292 178.439 115.216 178.519 115.124 178.575C115.032 178.631 114.927 178.662 114.819 178.663V178.657Z" fill="#F15F5A"/>
<path d="M93.2684 95.4649V107.398C93.2684 108.359 94.5684 109.922 95.0573 110.644C96.4488 112.727 98.3644 114.406 100.611 115.512C102.858 116.618 105.356 117.112 107.854 116.944C110.526 116.736 112.38 115.512 114.008 113.442C114.121 113.293 115.499 111.652 115.385 111.473L105.845 98.12L102.171 80.9423L92.3501 84.6893V93.3766L93.2684 95.4649Z" fill="#F9B387"/>
<path d="M106.739 58.5677C106.739 58.5677 111.235 59.6954 115.511 60.3577C119.786 61.0199 127.353 65.6858 126.751 76.1094C126.149 86.5329 125.779 87.064 125.928 88.9374C126.077 90.8109 125.702 100.871 125.857 102.661C126.012 104.45 124.879 112.708 119.184 112.559C113.489 112.41 103.442 112.261 103.084 101.157C102.726 90.0532 102.565 85.7215 100.836 84.7251C99.1064 83.7286 93.5667 84.4983 93.4176 88.5496C93.2685 92.6009 95.3019 96.0496 99.1123 96.3061C99.1123 96.3061 98.8738 99.2298 93.4116 98.7823C88.993 94.3551 86.9715 81.9804 88.8439 75.6798C90.7163 69.3791 97.5381 67.4221 97.5381 67.4221C97.5381 67.4221 96.6377 62.4698 98.8142 61.7956C100.991 61.1214 107.061 61.8672 107.061 61.8672L106.739 58.5677Z" fill="#4E273F"/>
<path d="M107.479 75.5247C109.425 75.8416 111.341 76.3185 113.209 76.9507C115.982 77.9232 126.775 76.1213 126.775 76.1213L125.97 87.0759L125.863 98.9434C125.863 98.9434 124.456 96.5269 123.03 96.5269C121.605 96.5269 115.606 95.9303 114.932 97.7202C114.259 99.5102 114.11 100.047 114.11 100.047C112.399 99.884 110.8 99.1271 109.589 97.9076C108.377 96.6881 107.631 95.0831 107.479 93.3706C107.032 90.1363 106.767 86.8794 106.686 83.6153C106.686 83.6153 108.343 78.0724 107.479 75.5247Z" fill="#F9B387"/>
<path d="M98.4386 93.9732C98.3454 93.9714 98.2538 93.949 98.1703 93.9076C98.0689 93.8539 95.5942 92.589 95.5942 89.9279C95.5942 87.6904 97.7767 86.7 98.9336 86.4852C99.0119 86.4711 99.0922 86.4726 99.1699 86.4895C99.2477 86.5065 99.3213 86.5386 99.3867 86.584C99.452 86.6295 99.5077 86.6873 99.5507 86.7543C99.5937 86.8213 99.6231 86.8961 99.6372 86.9745C99.6513 87.0528 99.6498 87.1332 99.6329 87.211C99.6159 87.2888 99.5839 87.3624 99.5385 87.4278C99.493 87.4932 99.4352 87.549 99.3683 87.592C99.3013 87.635 99.2265 87.6644 99.1482 87.6785C99.0409 87.6785 96.763 88.1558 96.763 89.9458C96.763 91.8611 98.6056 92.8217 98.6831 92.8634C98.7578 92.895 98.8253 92.9414 98.8814 92.9999C98.9376 93.0584 98.9812 93.1277 99.0097 93.2037C99.0382 93.2796 99.0508 93.3606 99.047 93.4416C99.0431 93.5226 99.0228 93.602 98.9872 93.6749C98.9323 93.7705 98.8519 93.849 98.7551 93.9016C98.6582 93.9543 98.5487 93.9791 98.4386 93.9732V93.9732Z" fill="#F15F5A"/>
<path d="M198.457 161.879V190.894C198.457 192.002 198.017 193.064 197.235 193.847C196.452 194.63 195.39 195.071 194.283 195.071H94.9798C94.465 195.071 93.9635 194.908 93.5476 194.604C93.1317 194.301 92.823 193.873 92.6661 193.382L92.4276 192.72L91.718 190.53L118.069 175.81L122.398 161.431C122.624 160.677 123.087 160.015 123.719 159.546C124.351 159.076 125.117 158.823 125.904 158.824H193.693C194.282 158.82 194.852 159.035 195.293 159.427C195.733 159.82 196.013 160.361 196.078 160.948C196.078 161.031 196.078 161.115 196.078 161.204L198.457 161.879Z" fill="#E0DEE0"/>
<path d="M196.06 160.948H157.425V195.106H154.277V175.715H137.801V160.978H125.875L119.703 178.102L92.4276 192.72L91.718 190.53L118.069 175.811L122.398 161.431C122.624 160.677 123.087 160.015 123.719 159.546C124.351 159.076 125.117 158.823 125.904 158.824H193.693C194.279 158.825 194.845 159.042 195.282 159.433C195.718 159.825 195.995 160.364 196.06 160.948V160.948Z" fill="#7288AE"/>
<path d="M154.318 160.924H140.287V172.433H154.318V160.924Z" fill="#CDD3CC"/>
<path d="M117.789 85.99C117.493 85.9892 117.208 85.8787 116.99 85.6797C115.767 84.57 114.563 84.0509 113.412 84.1284C112.354 84.2509 111.377 84.7584 110.669 85.5544C110.469 85.7997 110.18 85.9554 109.865 85.9873C109.55 86.0192 109.235 85.9247 108.99 85.7245C108.745 85.5243 108.589 85.2349 108.558 84.9199C108.526 84.6049 108.62 84.2902 108.82 84.0449C109.939 82.7532 111.505 81.9326 113.203 81.7478C115.04 81.6105 116.853 82.3444 118.57 83.9077C118.686 84.0133 118.78 84.1408 118.847 84.283C118.914 84.4251 118.952 84.579 118.959 84.7358C118.966 84.8927 118.942 85.0494 118.889 85.1971C118.835 85.3447 118.753 85.4804 118.647 85.5962C118.539 85.7169 118.406 85.8141 118.259 85.8818C118.111 85.9495 117.951 85.9863 117.789 85.99Z" fill="#4E273F"/>
<path d="M122.279 86.4196C122.05 86.419 121.827 86.3527 121.635 86.2286C121.371 86.0575 121.186 85.7891 121.119 85.4819C121.052 85.1746 121.109 84.8533 121.277 84.5878C121.986 83.4965 123.084 82.7175 124.348 82.41C124.903 82.3207 125.471 82.3506 126.014 82.4977C126.557 82.6448 127.062 82.9058 127.497 83.2633C127.627 83.3556 127.738 83.4732 127.822 83.6091C127.906 83.7449 127.962 83.8964 127.986 84.0543C128.011 84.2123 128.004 84.3736 127.965 84.5286C127.926 84.6837 127.856 84.8293 127.76 84.9568C127.663 85.0844 127.542 85.1913 127.404 85.2712C127.266 85.3511 127.112 85.4023 126.954 85.4219C126.795 85.4414 126.634 85.4289 126.481 85.3851C126.327 85.3412 126.184 85.2669 126.06 85.1666C125.888 85.0123 125.685 84.8963 125.465 84.8264C125.245 84.7564 125.013 84.7341 124.783 84.7609C124.166 84.9427 123.634 85.3382 123.281 85.8766C123.172 86.0435 123.024 86.1807 122.849 86.2755C122.674 86.3704 122.478 86.4199 122.279 86.4196V86.4196Z" fill="#4E273F"/>
<path d="M120.603 96.4971C120.445 96.5121 120.287 96.4637 120.165 96.3624C120.042 96.2612 119.965 96.1154 119.95 95.9571C119.935 95.7989 119.984 95.6412 120.085 95.5186C120.186 95.3961 120.332 95.3188 120.49 95.3038C121.411 95.0961 122.271 94.6751 123 94.0747C123.108 93.9852 123.173 93.8957 123.173 93.8479C123.173 93.6212 122.648 93.12 122.267 92.7501C121.823 92.3522 121.424 91.9081 121.074 91.4255C119.989 89.8623 120.311 86.9029 120.353 86.5688C120.362 86.4907 120.387 86.4153 120.426 86.3469C120.465 86.2785 120.517 86.2185 120.579 86.1703C120.641 86.122 120.712 86.0865 120.788 86.0658C120.863 86.0451 120.943 86.0396 121.021 86.0497C121.099 86.0592 121.174 86.0842 121.242 86.123C121.311 86.1618 121.371 86.2137 121.419 86.2759C121.467 86.338 121.503 86.409 121.523 86.4848C121.544 86.5607 121.549 86.6399 121.539 86.7179C121.444 87.4936 121.355 89.737 122.052 90.7453C122.365 91.1592 122.719 91.541 123.108 91.885C123.776 92.5174 124.408 93.12 124.39 93.8778C124.378 94.0943 124.318 94.3056 124.215 94.4964C124.112 94.6872 123.968 94.8529 123.793 94.9816C122.903 95.7176 121.85 96.231 120.722 96.4792L120.603 96.4971Z" fill="#F15F5A"/>
<path d="M115.594 90.4888C116.036 90.4888 116.393 89.8343 116.393 89.027C116.393 88.2196 116.036 87.5652 115.594 87.5652C115.153 87.5652 114.795 88.2196 114.795 89.027C114.795 89.8343 115.153 90.4888 115.594 90.4888Z" fill="#4E273F"/>
<path d="M123.376 90.0055C123.745 90.0055 124.044 89.522 124.044 88.9255C124.044 88.3291 123.745 87.8456 123.376 87.8456C123.007 87.8456 122.708 88.3291 122.708 88.9255C122.708 89.522 123.007 90.0055 123.376 90.0055Z" fill="#4E273F"/>
<path d="M120.574 104.063C117.061 104.098 116.352 101.676 116.399 100.107L124.044 99.9457C124.044 99.9457 124.485 104.027 120.574 104.063Z" fill="white"/>
<path d="M156.978 115.155C156.878 115.155 156.779 115.13 156.691 115.082C156.603 115.034 156.529 114.964 156.475 114.88C156.421 114.795 156.389 114.699 156.382 114.599C156.375 114.498 156.393 114.398 156.436 114.307L161.486 103.383C161.553 103.239 161.674 103.127 161.822 103.072C161.971 103.017 162.135 103.024 162.279 103.09C162.423 103.157 162.535 103.278 162.59 103.426C162.644 103.575 162.638 103.74 162.572 103.884L157.515 114.808C157.467 114.911 157.392 114.998 157.297 115.059C157.202 115.121 157.091 115.154 156.978 115.155Z" fill="#F15F5A"/>
<path d="M159.5 118.884C159.402 118.884 159.305 118.859 159.218 118.812C159.132 118.766 159.058 118.698 159.004 118.616C158.949 118.534 158.916 118.44 158.907 118.342C158.898 118.244 158.913 118.145 158.952 118.054L163.227 107.714C163.289 107.575 163.402 107.464 163.543 107.405C163.684 107.346 163.842 107.344 163.985 107.398C164.057 107.428 164.123 107.472 164.178 107.528C164.234 107.583 164.278 107.649 164.308 107.722C164.338 107.795 164.353 107.872 164.353 107.951C164.353 108.029 164.337 108.107 164.307 108.18L160.037 118.52C159.992 118.626 159.918 118.716 159.822 118.781C159.727 118.846 159.615 118.881 159.5 118.884Z" fill="#F15F5A"/>
<path d="M141.689 159.08H181.182C181.182 159.08 186.448 120.972 209.966 105.692C209.966 105.692 188.01 90.7752 168.713 108.502C149.417 126.228 141.689 159.08 141.689 159.08Z" fill="#7288AE"/>
<path d="M192.607 99.91L235.476 99.8145C235.476 99.8145 258.732 107.923 257.146 131.145C256.269 143.937 254.164 156.64 252.805 169.39C251.546 181.055 248.159 194.516 254.099 205.476C254.487 206.013 254.671 206.671 254.617 207.332C254.489 207.753 254.25 208.132 253.926 208.43C250.911 211.583 247.119 213.887 242.932 215.108C238.745 216.329 234.31 216.425 230.073 215.387C210.437 210.333 212.822 193.012 215.535 177.571C217.444 166.676 219.28 155.715 219.751 144.647C220.556 125.775 215.625 102.338 192.607 99.91Z" fill="#E0DEE0"/>
<path d="M292.74 135.59L330.826 135.429C330.826 135.429 353.05 148.436 349.067 200.673H310.486C310.486 200.673 315.173 148.806 292.74 135.59Z" fill="#E0DEE0"/>
<path d="M235.697 218C233.651 218.003 231.613 217.746 229.632 217.236C208.38 211.717 211.785 192.135 214.271 177.857C216.293 166.24 217.998 155.739 218.445 144.892C218.922 133.555 217.569 124.283 214.42 117.338C210.389 108.442 203.335 103.4 193.454 102.344L193.705 99.9577C212.607 101.974 221.987 117.541 220.831 144.981C220.365 155.972 218.642 166.55 216.609 178.257C213.591 195.608 212.536 210.345 230.222 214.939C234.244 215.924 238.454 215.827 242.426 214.656C246.398 213.485 249.989 211.284 252.834 208.275C252.999 208.115 253.136 207.93 253.24 207.726L255.566 208.239C255.396 208.869 255.058 209.44 254.588 209.891C252.156 212.459 249.227 214.502 245.978 215.896C242.73 217.29 239.231 218.006 235.697 218V218Z" fill="#7288AE"/>
<path d="M349.544 198.328V200.673H309.734L309.77 199.48C309.884 191.136 309.415 182.794 308.369 174.516C306.484 159.85 302.161 142.815 292.316 135.62C293.673 135.557 295.032 135.674 296.359 135.966C302.871 142.326 307.462 153.496 310.038 169.277C310.152 169.963 310.259 170.649 310.36 171.348C311.628 180.288 312.226 189.311 312.149 198.34L349.544 198.328Z" fill="#7288AE"/>
<path d="M308.5 167.332C308.5 167.332 308.249 168.263 307.772 169.88C307.373 171.228 306.812 173.06 306.103 175.214C301.869 188.125 292.388 212.803 280.42 217.033H242.333C242.333 217.033 257.951 208.776 264.451 184.014C270.157 162.248 274.916 136.419 290.05 135.608C291.407 135.545 292.767 135.663 294.093 135.96C295.053 136.167 295.997 136.44 296.919 136.777C298.852 137.654 306.926 144.677 308.5 167.332Z" fill="#7288AE"/>
<path d="M147.3 167.248C150.399 167.248 152.911 164.735 152.911 161.634C152.911 158.533 150.399 156.019 147.3 156.019C144.201 156.019 141.689 158.533 141.689 161.634C141.689 164.735 144.201 167.248 147.3 167.248Z" fill="#060A16"/>
<path d="M147.3 164.57C148.92 164.57 150.234 163.255 150.234 161.634C150.234 160.013 148.92 158.698 147.3 158.698C145.68 158.698 144.366 160.013 144.366 161.634C144.366 163.255 145.68 164.57 147.3 164.57Z" fill="#F15E5D"/>
<path d="M256.09 117.123C254.809 117.098 253.547 116.8 252.39 116.247C251.233 115.694 250.207 114.901 249.382 113.919C247.094 115.433 244.48 116.384 241.755 116.694C238.44 117.135 235.416 116.694 233.019 115.345C231.347 114.416 229.918 113.105 228.845 111.521C226.841 113.657 225.017 115.256 224.575 115.644C224.373 115.819 224.109 115.906 223.843 115.886C223.576 115.867 223.328 115.742 223.153 115.539C222.979 115.337 222.891 115.073 222.911 114.806C222.93 114.539 223.055 114.291 223.258 114.116C224.838 112.727 226.343 111.253 227.766 109.701C227.089 108.349 226.565 106.927 226.203 105.459C225.911 104.24 225.694 103.005 225.553 101.76V101.533C225.422 100.507 225.261 99.2238 225.989 98.0902C226.943 96.5866 228.887 96.0615 230.276 96.0615H230.318C231.548 96.0326 232.739 96.491 233.633 97.337C234.526 98.183 235.049 99.348 235.088 100.578C235.249 103.388 232.816 106.986 230.24 109.976C231.162 111.473 232.446 112.714 233.973 113.585C235.989 114.695 238.583 115.077 241.469 114.695C243.862 114.448 246.161 113.63 248.171 112.308C247.088 110.479 246.284 108.498 245.786 106.431C245.1 103.687 245.53 101.622 247.074 100.286C248.714 98.8718 251.457 98.4959 253.21 100.286C254.045 101.139 254.248 102.482 254.337 103.687C254.45 105.389 254.189 107.096 253.574 108.687C252.987 110.194 252.074 111.553 250.902 112.666C251.546 113.43 252.346 114.045 253.248 114.471C254.151 114.898 255.134 115.124 256.132 115.137C257.456 115.078 258.748 114.71 259.904 114.062C261.061 113.415 262.05 112.506 262.793 111.408C263.229 110.765 263.524 110.037 263.657 109.271C263.695 109.006 263.835 108.767 264.049 108.606C264.263 108.445 264.531 108.375 264.796 108.412C265.061 108.449 265.301 108.59 265.462 108.804C265.623 109.018 265.692 109.287 265.655 109.552C265.475 110.607 265.068 111.611 264.462 112.493C263.54 113.876 262.302 115.02 260.85 115.829C259.398 116.638 257.775 117.09 256.114 117.147L256.09 117.123ZM250.33 101.067C249.632 101.081 248.961 101.338 248.434 101.795C247.486 102.613 247.277 103.925 247.784 105.924C248.2 107.691 248.862 109.39 249.752 110.972C250.609 110.102 251.285 109.07 251.737 107.935C252.247 106.621 252.462 105.212 252.369 103.806C252.334 103.341 252.244 102.112 251.815 101.67C251.621 101.474 251.39 101.319 251.135 101.215C250.879 101.112 250.605 101.061 250.33 101.067V101.067ZM230.27 98.0842C229.358 98.0842 228.159 98.4303 227.676 99.188C227.342 99.7071 227.444 100.477 227.545 101.294V101.527C227.675 102.687 227.874 103.839 228.141 104.976C228.407 106.031 228.76 107.063 229.197 108.06C231.373 105.459 233.18 102.661 233.067 100.709C233.063 100.351 232.986 99.9964 232.841 99.6681C232.696 99.3397 232.487 99.044 232.225 98.7988C231.963 98.5535 231.655 98.3638 231.318 98.241C230.981 98.1182 230.622 98.0649 230.264 98.0842H230.27Z" fill="#F15E5D"/>
<path d="M225.619 149.928C225.548 149.933 225.476 149.933 225.404 149.928C225.25 149.9 225.103 149.841 224.971 149.756C224.839 149.671 224.725 149.561 224.636 149.432C224.547 149.303 224.484 149.157 224.451 149.004C224.418 148.85 224.416 148.692 224.444 148.537C224.593 147.702 226.019 140.321 229.608 138.156C230.118 137.839 230.691 137.639 231.286 137.568C231.881 137.497 232.485 137.557 233.055 137.744C235.738 138.597 236.931 141.324 237.974 143.758C238.66 145.333 239.364 146.962 240.211 147.231C240.634 147.356 241.236 147.183 242 146.706C243.586 145.617 245.08 144.4 246.466 143.066C249.543 140.28 252.429 137.642 255.345 138.376C257.134 138.824 258.476 140.447 259.519 143.346C259.612 143.642 259.587 143.961 259.449 144.238C259.31 144.515 259.07 144.728 258.778 144.831C258.487 144.934 258.166 144.919 257.885 144.79C257.604 144.661 257.384 144.428 257.271 144.14C256.77 142.726 255.929 140.984 254.778 140.691C253.115 140.268 250.443 142.696 248.088 144.832C246.599 146.268 244.989 147.571 243.276 148.728C241.868 149.605 240.634 149.856 239.507 149.504C237.617 148.907 236.734 146.873 235.792 144.731C234.909 142.684 234.003 140.554 232.339 140.047C232.093 139.961 231.83 139.932 231.57 139.963C231.311 139.994 231.062 140.084 230.843 140.226C228.583 141.586 227.157 147.016 226.8 148.991C226.741 149.259 226.591 149.499 226.376 149.669C226.161 149.84 225.893 149.931 225.619 149.928V149.928Z" fill="#F15E5D"/>
<path d="M239.191 182.368C238.885 182.37 238.579 182.342 238.279 182.284C236.841 182.022 235.452 181.121 234.104 179.605C232.925 180.785 231.346 181.479 229.68 181.55C224.587 181.741 219.996 176.025 219.799 175.781C219.642 175.562 219.575 175.291 219.613 175.024C219.65 174.758 219.788 174.515 219.998 174.347C220.209 174.18 220.476 174.099 220.744 174.123C221.012 174.146 221.261 174.272 221.439 174.474C221.481 174.528 225.577 179.605 229.608 179.456C230.838 179.388 231.992 178.839 232.822 177.929C231.995 176.689 231.268 175.387 230.646 174.032C230.328 173.473 230.144 172.847 230.108 172.204C230.071 171.562 230.184 170.919 230.437 170.327C230.735 169.78 231.143 169.299 231.634 168.915C232.125 168.531 232.69 168.252 233.293 168.096L233.496 168.066C233.615 168.066 236.448 167.941 237.611 169.999C238.613 171.789 237.957 174.337 235.607 177.815L235.488 177.982C236.561 179.265 237.635 180.035 238.654 180.226C239.674 180.417 240.873 179.975 242.047 178.847C243.222 177.72 244.164 176.64 245.029 175.643C247.158 173.221 248.851 171.312 250.944 171.562C252.477 171.747 253.795 173.042 255.214 175.739C255.289 175.862 255.339 175.998 255.36 176.141C255.38 176.284 255.371 176.429 255.333 176.568C255.295 176.707 255.229 176.837 255.138 176.949C255.048 177.061 254.936 177.154 254.808 177.221C254.68 177.288 254.54 177.328 254.397 177.338C254.253 177.348 254.109 177.329 253.973 177.281C253.837 177.234 253.712 177.158 253.607 177.06C253.501 176.962 253.417 176.844 253.359 176.711C252.083 174.277 251.207 173.686 250.694 173.627C249.698 173.501 248.189 175.208 246.597 177.01C245.691 178.042 244.659 179.211 243.484 180.339C242.101 181.694 240.664 182.368 239.191 182.368ZM233.711 170.16C233.133 170.331 232.64 170.715 232.333 171.234C232.227 171.549 232.191 171.883 232.228 172.213C232.265 172.543 232.374 172.86 232.548 173.143C233.029 174.185 233.575 175.195 234.182 176.168C236.341 172.827 236.036 171.473 235.792 171.031C235.357 170.256 234.087 170.166 233.711 170.16Z" fill="#F15E5D"/>
<path d="M332.99 153.937C330.103 154.026 327.274 153.108 324.988 151.342C323.489 152.815 321.519 153.712 319.424 153.877C313.747 154.218 309.377 148.346 309.192 148.096C309.004 147.84 308.926 147.521 308.974 147.207C309.022 146.894 309.193 146.613 309.448 146.425C309.703 146.238 310.023 146.159 310.336 146.208C310.649 146.256 310.93 146.426 311.118 146.682V146.682C311.154 146.735 314.922 151.765 319.287 151.491C320.808 151.352 322.236 150.695 323.33 149.629C322.862 149.019 322.462 148.358 322.137 147.66C320.814 144.808 319.114 137.744 322.662 135.357C324.081 134.449 325.751 134.015 327.433 134.116C327.945 134.104 328.455 134.193 328.932 134.379C329.41 134.566 329.846 134.845 330.214 135.202C330.583 135.558 330.877 135.985 331.079 136.456C331.281 136.927 331.388 137.434 331.392 137.947C331.637 140.93 330.2 143.782 328.685 146.461C328.078 147.564 327.38 148.613 326.598 149.599C328.739 151.276 331.422 151.562 333.157 151.545C333.485 151.545 333.813 151.545 334.141 151.509C346.067 150.715 348.554 144.647 348.655 144.391C348.766 144.094 348.99 143.853 349.278 143.722C349.566 143.59 349.894 143.579 350.191 143.69C350.487 143.8 350.728 144.024 350.859 144.313C350.991 144.601 351.002 144.929 350.892 145.226C350.772 145.542 347.91 152.982 334.302 153.889C333.927 153.889 333.557 153.925 333.187 153.931L332.99 153.937ZM326.95 136.491C325.896 136.492 324.863 136.787 323.968 137.344C322.078 138.621 323.092 144.104 324.278 146.664C324.464 147.079 324.684 147.478 324.934 147.857C325.545 147.054 326.095 146.206 326.58 145.321C327.904 142.971 329.18 140.477 328.965 138.162C328.961 137.765 328.839 137.378 328.613 137.052C328.23 136.707 327.733 136.516 327.218 136.515L326.95 136.491Z" fill="#F15E5D"/>
<path d="M318.088 181.658C317.935 181.657 317.783 181.627 317.641 181.568C317.496 181.509 317.364 181.422 317.252 181.312C317.14 181.202 317.051 181.07 316.99 180.926C316.929 180.781 316.898 180.626 316.897 180.469C316.896 180.312 316.926 180.156 316.985 180.011C317.367 179.074 320.861 170.876 325.674 171.729C327.963 172.135 329.019 174.116 329.949 175.852C331.183 178.161 331.929 179.343 334.183 178.836C337.009 178.239 338.882 175.852 340.534 173.782C341.994 171.95 343.253 170.363 345.018 170.106C348.721 169.558 353.205 170.22 354.982 180.25C355.035 180.561 354.963 180.88 354.781 181.138C354.599 181.396 354.323 181.571 354.012 181.626C353.701 181.68 353.382 181.609 353.123 181.429C352.865 181.248 352.688 180.972 352.633 180.661C351.034 171.646 347.618 172.147 345.364 172.481C344.529 172.6 343.497 173.901 342.382 175.279C340.593 177.553 338.333 180.375 334.678 181.174C330.551 182.081 328.977 179.128 327.826 176.968C326.932 175.297 326.312 174.265 325.238 174.074C322.913 173.663 320.158 178.501 319.18 180.906C319.093 181.125 318.942 181.314 318.748 181.447C318.554 181.581 318.324 181.654 318.088 181.658Z" fill="#F15E5D"/>
<path d="M321.929 87.0103L320.414 88.9733L307.265 90.3993L302.716 86.5329L308.875 77.6487L304.469 74.3433L298.064 83.317L291.767 77.9471L301.934 64.5939L295.709 59.7729L286.77 71.6345L280.688 66.6225L281.785 65.2025L286.466 69.0629L295.369 57.2491L304.433 64.2658L294.218 77.6845L297.742 80.6917L304.081 71.8134L311.326 77.2549L305.107 86.2167L307.838 88.5377L321.929 87.0103Z" fill="white"/>
<path d="M321.565 77.8158C324.279 77.8158 326.479 75.6146 326.479 72.8993C326.479 70.1841 324.279 67.9829 321.565 67.9829C318.851 67.9829 316.651 70.1841 316.651 72.8993C316.651 75.6146 318.851 77.8158 321.565 77.8158Z" fill="white"/>
</svg>
