<svg width="342" height="322" viewBox="0 0 342 322" fill="none" xmlns="http://www.w3.org/2000/svg">
<path d="M154.988 29.0681L110.547 253.312C110.003 256.058 110.009 258.884 110.566 261.627C111.123 264.371 112.22 266.976 113.792 269.291C115.364 271.607 117.381 273.587 119.725 275.117C122.069 276.647 124.693 277.696 127.446 278.202L248.292 300.439C253.753 301.434 259.385 300.239 263.971 297.112C268.557 293.985 271.728 289.179 272.798 283.732L316.77 59.4773C317.307 56.7356 317.294 53.9147 316.734 51.1778C316.173 48.4409 315.075 45.8423 313.503 43.5325C311.932 41.2227 309.918 39.2475 307.578 37.7212C305.238 36.195 302.619 35.1479 299.871 34.6406L179.558 12.393C174.093 11.3848 168.451 12.5693 163.853 15.6901C159.254 18.8109 156.07 23.6169 154.988 29.0681V29.0681Z" fill="#0C111D"/>
<path d="M306.094 61.7894L279.009 203.959L268.163 260.888C267.253 265.351 264.612 269.271 260.817 271.79C257.023 274.308 252.384 275.219 247.919 274.324L194.645 264.234L137.802 253.451C135.588 253.061 133.475 252.231 131.587 251.011C129.699 249.791 128.075 248.205 126.81 246.347C125.545 244.489 124.664 242.396 124.221 240.192C123.777 237.989 123.78 235.718 124.228 233.516L166.506 35.8872C167.495 31.5316 170.139 27.7314 173.879 25.2897C177.619 22.8481 182.162 21.9563 186.548 22.8029L292.338 42.2269C294.53 42.6002 296.626 43.4036 298.505 44.5907C300.385 45.7778 302.011 47.3253 303.29 49.1438C304.568 50.9623 305.474 53.0159 305.956 55.1863C306.437 57.3567 306.484 59.6008 306.094 61.7894V61.7894Z" fill="#E0DEE0"/>
<path d="M279.009 203.959L268.163 260.888C267.254 265.351 264.612 269.271 260.817 271.79C257.023 274.308 252.384 275.219 247.919 274.324L194.645 264.234L194.027 255.923L266.32 201.647L279.009 203.959Z" fill="#688BC7"/>
<path d="M272.979 199.92C254.312 232.045 194.613 259.29 194.613 259.29L147.647 224.427C147.647 224.427 142.682 226.75 134.915 230.021C113.403 239.099 70.3684 255.454 51.6693 249.828C26.4602 242.253 27.0249 222.125 28.5272 213.463C28.9396 211.119 29.8517 208.891 31.2016 206.931L49.4744 180.369L81.9501 175.414L113.914 170.577C96.5897 141.648 122.108 118.644 122.108 118.644L170.054 83.6748L184.065 42.6531C184.065 42.6531 222.22 28.6312 244.797 52.8819C260.065 69.3012 241.419 147.605 241.419 147.605L272.979 199.92Z" fill="#0C111D"/>
<path d="M147.647 224.427C147.647 224.427 142.682 226.75 134.915 230.021L135.629 209.968L147.647 224.427Z" fill="#060A16"/>
<path d="M147.647 185.43C136.945 191.003 124.526 192.302 112.902 189.063C102.759 209.158 91.4436 220.293 91.4436 220.293L81.9502 175.414L113.914 170.577C125.027 187.209 147.647 185.43 147.647 185.43Z" fill="#060A16"/>
<path d="M122.087 114.681L119.125 140.636C119.125 140.636 106.339 171.663 163.278 168.648L144.099 140.572L122.087 114.681Z" fill="#060A16"/>
<path d="M103.004 154.733C102.407 166.89 100.958 176.543 100.958 176.543L96.3022 197.917L91.4223 220.293C91.4223 220.293 46.8536 205.685 37.6692 195.168L50.2524 179.399L66.991 158.43C66.991 158.43 53.2784 148.649 54.8233 143.769C54.8233 143.769 41.2385 131.729 44.7013 124.931C48.1641 118.133 59.4048 102.96 65.1051 103.195C70.8054 103.429 67.4811 115.746 64.0397 120.456C60.5982 125.165 59.9909 125.41 59.9909 125.41L62.3669 128.98C62.3669 128.98 70.5923 112.997 80.8422 125.527C80.8422 125.527 77.5072 111.111 85.0188 110.983C92.5304 110.856 94.0754 125.527 95.2687 128.511C96.462 131.494 103.601 142.575 103.004 154.733Z" fill="#FAB28A"/>
<path d="M96.3234 197.917L91.4436 220.293C91.4436 220.293 46.8748 205.685 37.6904 195.168L50.2737 179.399C50.2737 179.399 76.9851 197.789 96.3234 197.917Z" fill="#EEEDEE"/>
<path d="M55.9099 142.277C55.8284 142.28 55.7476 142.262 55.6755 142.224C55.6123 142.193 55.556 142.15 55.5098 142.098C55.4636 142.045 55.4285 141.983 55.4067 141.917C55.3848 141.85 55.3766 141.78 55.3825 141.71C55.3884 141.64 55.4083 141.572 55.4411 141.51L61.8339 128.724C62.015 128.394 66.1917 120.893 72.2542 120.349C75.3654 120.061 78.3807 121.692 81.2042 125.176C81.2932 125.286 81.3348 125.427 81.3198 125.568C81.3048 125.709 81.2345 125.838 81.1243 125.927C81.0141 126.016 80.873 126.058 80.7322 126.043C80.5913 126.028 80.4622 125.957 80.3731 125.847C77.7947 122.651 75.0458 121.17 72.3501 121.404C66.8629 121.894 62.8141 129.15 62.7609 129.225L56.368 142.011C56.3215 142.091 56.2548 142.158 56.1744 142.205C56.094 142.252 56.0028 142.277 55.9099 142.277Z" fill="#F15F5A"/>
<path d="M91.7951 150.908C91.7252 150.908 91.6559 150.895 91.5917 150.867C91.5275 150.84 91.4697 150.799 91.4222 150.748C91.3722 150.698 91.3326 150.639 91.3056 150.574C91.2785 150.509 91.2646 150.44 91.2646 150.37C91.2646 150.299 91.2785 150.23 91.3056 150.165C91.3326 150.1 91.3722 150.041 91.4222 149.991C97.1544 144.174 90.8788 136.555 90.8042 136.481L90.6763 136.321V136.108C90.6856 133.884 89.8996 131.73 88.4602 130.035C87.6185 129.206 86.6187 128.556 85.5205 128.122C84.4222 127.688 83.2478 127.48 82.0673 127.509H81.8755C72.8616 127.509 64.828 146.198 64.7321 146.39C64.6756 146.52 64.5697 146.622 64.4378 146.674C64.306 146.726 64.1588 146.723 64.0289 146.667C63.8989 146.61 63.7967 146.505 63.7447 146.373C63.6928 146.241 63.6953 146.094 63.7518 145.964C64.0928 145.154 72.2756 126.145 82.0993 126.444C83.4189 126.409 84.7319 126.643 85.9588 127.13C87.1857 127.617 88.3012 128.348 89.238 129.278C90.8373 131.116 91.7222 133.469 91.7312 135.905C92.6581 137.109 98.124 144.685 92.1573 150.705C92.114 150.762 92.0595 150.809 91.9972 150.844C91.9349 150.879 91.8661 150.9 91.7951 150.908Z" fill="#F15F5A"/>
<path d="M95.6309 170.651C95.5486 170.65 95.468 170.628 95.3965 170.587C95.3334 170.557 95.277 170.514 95.2309 170.461C95.1847 170.408 95.1496 170.347 95.1277 170.28C95.1058 170.213 95.0976 170.143 95.1035 170.073C95.1094 170.003 95.1293 169.935 95.1621 169.873C95.1621 169.767 100.639 158.984 94.0966 153.667C88.439 149.086 88.716 148.553 88.961 148.084C89.0637 147.924 89.2186 147.805 89.3993 147.747C89.58 147.689 89.7753 147.695 89.9519 147.764C90.0856 147.806 90.1974 147.899 90.2633 148.023C90.3291 148.146 90.3435 148.291 90.3035 148.425C90.2813 148.52 90.229 148.606 90.1544 148.67C91.5611 150.197 93.1054 151.592 94.7679 152.836C101.992 158.696 96.185 170.246 96.121 170.364C96.0748 170.453 96.0043 170.527 95.9175 170.578C95.8308 170.629 95.7314 170.654 95.6309 170.651V170.651Z" fill="#F15F5A"/>
<path d="M73.9485 153.039C73.8577 153.04 73.7685 153.014 73.6928 152.964C73.631 152.931 73.5765 152.885 73.5326 152.83C73.4887 152.776 73.4564 152.712 73.4375 152.645C73.4186 152.577 73.4135 152.506 73.4226 152.437C73.4317 152.367 73.4547 152.3 73.4904 152.239C73.7994 151.685 81.1298 138.697 84.8803 137.323C86.8991 136.529 89.0005 135.964 91.1453 135.639C91.285 135.624 91.425 135.665 91.5348 135.753C91.6446 135.841 91.7152 135.968 91.7313 136.108C91.7402 136.176 91.7354 136.246 91.7171 136.313C91.6988 136.38 91.6675 136.442 91.6248 136.497C91.5822 136.551 91.5292 136.597 91.4688 136.631C91.4084 136.664 91.3419 136.686 91.2731 136.694C89.2138 137.02 87.1955 137.566 85.2532 138.324C82.4403 139.39 76.4737 149.139 74.4173 152.804C74.3668 152.881 74.2968 152.943 74.2145 152.984C74.1321 153.026 74.0404 153.044 73.9485 153.039V153.039Z" fill="#F15F5A"/>
<path d="M126.018 102.662V98.6343C126.018 98.6343 120.254 90.5685 129.353 87.8089C129.353 87.8089 126.157 75.1401 138.111 73.6378C150.066 72.1354 160.561 80.0307 166.549 82.2789C172.537 84.5271 189.542 92.7741 189.542 96.5672C189.542 100.36 192.152 124.877 182.595 131.654C173.038 138.431 165.547 131.654 165.547 131.654L126.018 102.662Z" fill="#6A373E"/>
<path d="M206.27 38.6575L203.989 89.1088L186.526 83.4936L172.26 78.9013L164.951 76.5466C148.723 97.6754 128.511 79.6152 124.228 76.5466C119.945 73.4779 106.776 76.5466 103.707 71.2191C100.639 65.8916 114.277 62.0239 114.277 62.0239C111.666 55.6309 117.803 49.7813 117.803 49.7813L107.074 44.1981C107.074 44.1981 102.94 52.3065 95.439 56.1317C92.2426 57.7725 90.1116 56.771 88.8011 55.0662C87.8384 53.8026 87.3108 52.2612 87.2974 50.6727C87.2839 49.0843 87.7853 47.5342 88.7265 46.2545C92.3704 41.1614 99.8181 31.508 105.018 29.4942C112.146 26.7453 128.17 37.7625 128.17 37.7625C137.024 32.094 162.191 45.5726 162.191 45.5726L184.268 42.1097L206.27 38.6575Z" fill="#FAB28A"/>
<path d="M206.27 38.6575L203.989 89.1087L186.526 83.4936L184.268 42.163L193.963 39.7336C194.831 39.5209 195.715 39.3819 196.606 39.3181L206.27 38.6575Z" fill="#EEEDEE"/>
<path d="M164.951 76.4933C148.723 97.6221 128.511 79.5619 124.228 76.4933C119.945 73.4247 106.776 76.4933 103.707 71.1658C100.639 65.8383 114.277 61.9706 114.277 61.9706C114.277 61.9706 114.117 70.8462 125.571 73.5419C125.571 73.5419 128.906 78.1768 135.213 75.4704C135.213 75.4704 140.732 81.4159 146.784 76.3228C152.836 71.2297 153.337 65.0498 146.784 67.1169C146.784 67.1169 145.719 63.6434 152.197 60.937C152.197 60.9157 149.277 76.8875 164.951 76.4933Z" fill="#F15F5A"/>
<path d="M125.571 74.0533C125.469 74.0539 125.37 74.0249 125.285 73.9701C125.2 73.9152 125.133 73.8368 125.091 73.7443C123.499 70.1719 122.153 66.4944 121.064 62.7377C118.656 55.0129 132.038 46.4889 132.603 46.1799C132.723 46.105 132.868 46.0809 133.006 46.1129C133.144 46.1449 133.263 46.2303 133.338 46.3504C133.413 46.4705 133.437 46.6154 133.405 46.7533C133.373 46.8912 133.288 47.0107 133.168 47.0856C133.04 47.1708 119.913 55.4391 122.087 62.4287C123.166 66.1317 124.49 69.7589 126.05 73.2862C126.11 73.4137 126.118 73.5594 126.072 73.6926C126.026 73.8257 125.931 73.936 125.805 74C125.731 74.0327 125.652 74.0508 125.571 74.0533V74.0533Z" fill="#F15F5A"/>
<path d="M135.213 75.9819C135.097 75.9812 134.983 75.9423 134.891 75.8711C134.799 75.7998 134.732 75.7003 134.702 75.5876C134.702 75.5237 132.88 69.1946 131.996 63.9417C131.058 58.3798 141.414 51.0066 141.851 50.6976C141.908 50.6567 141.973 50.6276 142.042 50.6119C142.11 50.5962 142.181 50.5942 142.251 50.6061C142.32 50.618 142.386 50.6435 142.446 50.6812C142.505 50.7188 142.557 50.7679 142.597 50.8255C142.677 50.942 142.708 51.0851 142.684 51.2243C142.66 51.3635 142.583 51.488 142.469 51.5713C142.363 51.6459 132.219 58.8593 133.04 63.7606C133.924 68.9709 135.703 75.236 135.725 75.2999C135.761 75.4355 135.744 75.5801 135.677 75.7032C135.609 75.8264 135.496 75.9186 135.362 75.9606L135.213 75.9819Z" fill="#F15F5A"/>
<path d="M117.803 50.2395C117.734 50.239 117.665 50.2247 117.601 50.1972C117.537 50.1698 117.479 50.1298 117.43 50.0796C117.381 50.031 117.341 49.973 117.314 49.909C117.288 49.8449 117.274 49.7762 117.274 49.7067C117.274 49.6372 117.288 49.5685 117.314 49.5044C117.341 49.4404 117.381 49.3824 117.43 49.3338L126.913 39.5738C127.013 39.4839 127.143 39.4351 127.278 39.4373C127.412 39.4394 127.541 39.4923 127.638 39.5853C127.735 39.6783 127.793 39.8046 127.801 39.9389C127.809 40.0731 127.766 40.2053 127.68 40.309L118.198 50.069C118.148 50.1243 118.087 50.1682 118.019 50.1976C117.951 50.227 117.877 50.2413 117.803 50.2395Z" fill="#F15F5A"/>
<path d="M150.46 154.338L163.278 168.68L178.279 139.198L160.369 139.762L150.46 154.338Z" fill="#ED9F75"/>
<path d="M186.59 152.708C186.491 152.718 186.391 152.718 186.292 152.708C186.158 152.669 186.032 152.604 185.923 152.516C185.814 152.429 185.723 152.32 185.656 152.198C185.52 151.95 185.488 151.658 185.568 151.387L202.967 90.0677C203.046 89.7988 203.228 89.572 203.473 89.4364C203.719 89.3008 204.007 89.2673 204.277 89.3432C204.548 89.4202 204.777 89.6012 204.915 89.8468C205.053 90.0924 205.088 90.3825 205.012 90.6537L187.613 151.973C187.543 152.188 187.406 152.376 187.222 152.508C187.038 152.64 186.817 152.71 186.59 152.708Z" fill="#060A16"/>
<path d="M133.455 93.0937C133.455 93.0937 158.217 94.6707 164.737 91.8897C171.258 89.1088 161.36 98.7728 161.541 102.033C161.722 105.294 169.521 107.361 168.797 111.942C168.072 116.524 164.45 123.897 165.046 130.056C165.046 130.056 168.914 126.795 173.144 127.04C177.374 127.286 182.318 130.418 179.665 136.95C177.012 143.481 166.314 143.449 166.314 143.449C166.314 143.449 155.926 158.068 143.481 157.46C131.036 156.853 113.882 148.159 118.592 129.076C119.819 124.465 120.509 119.727 120.648 114.958C120.655 114.515 120.768 114.08 120.978 113.69C121.266 113.157 122.31 110.834 122.481 110.589C122.811 110.088 126.934 99.8383 126.934 99.8383C126.934 99.8383 132.485 95.1501 133.455 93.0937Z" fill="#F9B387"/>
<path d="M173.89 137.834C173.749 137.859 173.603 137.828 173.485 137.746C173.367 137.664 173.287 137.538 173.261 137.397C173.236 137.256 173.268 137.11 173.35 136.992C173.431 136.874 173.557 136.794 173.698 136.768C174.572 136.438 176.895 135.266 177.182 133.892C177.228 133.565 177.185 133.232 177.06 132.927C176.934 132.622 176.73 132.355 176.468 132.155C176.154 131.823 175.776 131.557 175.357 131.374C174.938 131.191 174.486 131.094 174.028 131.089C172.702 131.24 171.469 131.842 170.534 132.794C170.435 132.886 170.305 132.938 170.17 132.938C170.035 132.938 169.905 132.887 169.807 132.795C169.708 132.703 169.648 132.577 169.638 132.442C169.629 132.308 169.671 132.174 169.756 132.07C170.874 130.87 172.387 130.113 174.018 129.939C174.619 129.943 175.214 130.07 175.764 130.314C176.314 130.558 176.807 130.913 177.214 131.356C177.604 131.682 177.901 132.104 178.077 132.581C178.253 133.057 178.301 133.572 178.216 134.073C177.736 136.3 174.22 137.663 174.071 137.727C174.017 137.773 173.956 137.809 173.89 137.834V137.834Z" fill="#F15F5A"/>
<path d="M174.103 134.19C173.832 134.194 173.56 134.173 173.293 134.126C173.224 134.114 173.157 134.089 173.098 134.052C173.038 134.014 172.986 133.966 172.946 133.908C172.905 133.851 172.876 133.786 172.861 133.717C172.846 133.648 172.844 133.577 172.856 133.508C172.882 133.369 172.961 133.246 173.077 133.164C173.192 133.083 173.335 133.049 173.474 133.071C173.474 133.071 175.669 133.433 176.33 132.08C176.396 131.963 176.505 131.876 176.633 131.835C176.762 131.795 176.901 131.805 177.022 131.863C177.144 131.921 177.239 132.023 177.288 132.148C177.338 132.274 177.338 132.413 177.289 132.538C176.968 133.087 176.499 133.533 175.935 133.826C175.371 134.118 174.736 134.244 174.103 134.19V134.19Z" fill="#F15F5A"/>
<path d="M124.686 117.568C124.405 117.414 124.168 117.189 123.999 116.917C123.829 116.645 123.732 116.333 123.717 116.013C123.717 114.638 124.622 111.836 127.435 111.751C131.037 111.676 129.96 116.343 129.96 116.343C129.96 116.343 129.161 112.891 127.702 113.359C126.242 113.828 126.412 116.087 126.498 116.652C126.583 117.217 125.592 117.93 124.686 117.568Z" fill="#6A373E"/>
<path d="M144.323 117.462C144.323 117.462 149.16 117.376 150.961 114.713C150.961 114.713 150.535 118.421 147.647 118.655C144.76 118.889 144.323 117.462 144.323 117.462Z" fill="#6A373E"/>
<path d="M140.69 109.652C140.69 109.652 147.967 100.339 159.101 104.068C159.101 104.068 160.167 105.901 157.609 106.423C155.052 106.945 148.67 105.091 140.69 109.652Z" fill="#391C1D"/>
<path d="M121.575 103.589C121.575 103.589 133.295 98.7195 132.475 110.099C132.475 110.099 130.184 105.315 128.65 105.219C127.116 105.123 121.479 106.274 121.575 103.589Z" fill="#391C1D"/>
<g opacity="0.5">
<path opacity="0.5" d="M122.087 126.934C128.053 126.934 132.891 122.097 132.891 116.13C132.891 110.163 128.053 105.326 122.087 105.326C116.12 105.326 111.283 110.163 111.283 116.13C111.283 122.097 116.12 126.934 122.087 126.934Z" fill="#F8E9E0"/>
</g>
<g opacity="0.5">
<path opacity="0.5" d="M148.297 131.26C154.264 131.26 159.101 126.423 159.101 120.456C159.101 114.489 154.264 109.652 148.297 109.652C142.33 109.652 137.493 114.489 137.493 120.456C137.493 126.423 142.33 131.26 148.297 131.26Z" fill="#F8E9E0"/>
</g>
<path d="M122.086 127.999C119.74 127.993 117.449 127.292 115.501 125.983C113.553 124.675 112.037 122.819 111.143 120.65C110.25 118.481 110.019 116.095 110.481 113.795C110.943 111.494 112.076 109.382 113.737 107.725C115.398 106.069 117.513 104.941 119.815 104.486C122.116 104.031 124.501 104.267 126.668 105.167C128.835 106.066 130.687 107.587 131.99 109.539C133.292 111.49 133.988 113.784 133.988 116.13C133.986 117.691 133.677 119.236 133.078 120.678C132.479 122.119 131.602 123.429 130.497 124.531C129.392 125.633 128.08 126.507 126.637 127.102C125.194 127.697 123.647 128.002 122.086 127.999ZM122.086 106.391C120.16 106.391 118.278 106.962 116.676 108.032C115.075 109.102 113.826 110.623 113.089 112.403C112.352 114.182 112.159 116.141 112.535 118.03C112.911 119.919 113.838 121.654 115.2 123.016C116.562 124.378 118.297 125.306 120.187 125.681C122.076 126.057 124.034 125.864 125.813 125.127C127.593 124.39 129.114 123.142 130.184 121.54C131.254 119.939 131.825 118.056 131.825 116.13C131.822 113.548 130.795 111.072 128.969 109.247C127.144 107.421 124.668 106.394 122.086 106.391V106.391Z" fill="#1B2435"/>
<path d="M148.297 132.325C145.95 132.325 143.655 131.629 141.703 130.325C139.751 129.021 138.23 127.167 137.331 124.998C136.433 122.829 136.198 120.443 136.656 118.14C137.114 115.838 138.244 113.723 139.904 112.063C141.564 110.403 143.679 109.272 145.982 108.814C148.284 108.356 150.67 108.591 152.839 109.49C155.008 110.388 156.862 111.909 158.166 113.861C159.47 115.813 160.166 118.108 160.166 120.456C160.164 123.603 158.912 126.62 156.687 128.846C154.462 131.071 151.444 132.323 148.297 132.325V132.325ZM148.297 110.717C146.371 110.717 144.488 111.288 142.887 112.358C141.285 113.428 140.037 114.949 139.3 116.729C138.563 118.508 138.37 120.467 138.746 122.356C139.122 124.245 140.049 125.98 141.411 127.342C142.773 128.704 144.508 129.631 146.397 130.007C148.286 130.383 150.244 130.19 152.024 129.453C153.803 128.716 155.324 127.468 156.394 125.866C157.464 124.265 158.036 122.382 158.036 120.456C158.033 117.874 157.006 115.398 155.18 113.573C153.354 111.747 150.879 110.72 148.297 110.717V110.717Z" fill="#1B2435"/>
<path d="M132.539 132.038H132.4C130.903 131.603 129.606 130.656 128.735 129.363C128.053 128.127 129.097 126.913 130.419 125.368C131.878 123.808 133.054 122.005 133.892 120.04C135.629 115.533 132.827 110.813 132.827 110.76C132.756 110.639 132.735 110.496 132.769 110.36C132.803 110.225 132.889 110.108 133.008 110.035C133.13 109.964 133.275 109.943 133.412 109.977C133.549 110.01 133.668 110.096 133.743 110.216C133.871 110.429 136.779 115.437 134.808 120.424C134.191 122.212 133.22 123.857 131.953 125.261C130.792 126.625 130.003 128.17 130.312 128.724C130.848 129.678 131.647 130.459 132.613 130.972C132.748 131.014 132.861 131.106 132.931 131.229C133 131.351 133.02 131.496 132.986 131.633C132.959 131.736 132.902 131.83 132.823 131.901C132.743 131.973 132.645 132.021 132.539 132.038V132.038Z" fill="#F15F5A"/>
<path d="M129.364 137.131C129.222 137.142 129.082 137.097 128.974 137.005C128.867 136.913 128.8 136.782 128.788 136.641C128.777 136.499 128.822 136.359 128.914 136.251C129.006 136.144 129.137 136.077 129.278 136.065C132.134 135.548 134.715 134.038 136.566 131.803C136.653 131.693 136.779 131.62 136.918 131.6C137.057 131.58 137.198 131.615 137.312 131.697C137.547 131.867 137.515 132.165 137.419 132.443C135.48 138.303 129.641 137.109 129.438 137.141L129.364 137.131Z" fill="#F15F5A"/>
<path d="M133.057 117.618L132.725 119.723L137.325 120.448L137.656 118.343L133.057 117.618Z" fill="#1B2435"/>
<path d="M168.221 128.127L159.325 123.002L160.166 120.456L170.704 127.264L168.221 128.127Z" fill="#1B2435"/>
<path d="M99.3388 77.9956L85.6048 95.0436L85.5302 95.1395L76.6762 106.04C76.4196 106.358 76.1028 106.623 75.7438 106.819C75.3848 107.015 74.9906 107.139 74.5838 107.182C74.1771 107.226 73.7657 107.189 73.3734 107.073C72.981 106.957 72.6152 106.765 72.2971 106.508L60.8539 97.2492L47.0027 86.0828C46.3623 85.5649 45.9533 84.8143 45.8654 83.9954C45.7775 83.1765 46.0179 82.3562 46.5339 81.7142L56.2404 69.5995L69.1646 53.4786C69.422 53.1592 69.74 52.8938 70.1003 52.6978C70.4606 52.5017 70.8562 52.3789 71.2641 52.3363C71.6721 52.2937 72.0845 52.3322 72.4775 52.4496C72.8706 52.567 73.2365 52.761 73.5543 53.0204L79.5423 57.8897C79.7302 58.0433 79.886 58.2325 80.0006 58.4465C80.1152 58.6605 80.1864 58.8949 80.2102 59.1365C80.2339 59.3781 80.2098 59.6219 80.139 59.8541C80.0683 60.0863 79.9524 60.3022 79.798 60.4895L75.1206 66.1154C74.8166 66.4937 74.6741 66.9766 74.724 67.4593C74.7738 67.9421 75.012 68.3857 75.3869 68.6939L80.1176 72.7214L83.5165 75.6089C83.7011 75.7658 83.9149 75.8847 84.1455 75.9589C84.3761 76.0331 84.6191 76.0611 84.8605 76.0413C85.102 76.0215 85.3372 75.9543 85.5527 75.8436C85.7681 75.7328 85.9596 75.5807 86.1163 75.3958L91.0707 69.5569C91.3797 69.1882 91.8219 68.9566 92.301 68.9126C92.78 68.8687 93.257 69.0161 93.6278 69.3225L98.9552 73.5845C99.2723 73.8474 99.534 74.1707 99.7251 74.5355C99.9163 74.9004 100.033 75.2996 100.069 75.7099C100.104 76.1203 100.058 76.5336 99.933 76.926C99.8077 77.3184 99.6057 77.6819 99.3388 77.9956Z" fill="#FBC726"/>
<path d="M72.3608 82.9928L60.8324 97.2279L46.9812 86.0615C46.3408 85.5436 45.9318 84.793 45.8439 83.9741C45.7561 83.1552 45.9965 82.3349 46.5124 81.6929L56.2189 69.5782L72.3608 82.9928Z" fill="#F15E5D"/>
<path d="M86.1907 94.2551L76.676 106.04C76.4195 106.358 76.1027 106.623 75.7437 106.819C75.3846 107.015 74.9905 107.139 74.5837 107.182C74.177 107.226 73.7656 107.189 73.3732 107.073C72.9808 106.957 72.6151 106.765 72.2969 106.508L60.8538 97.2492L72.3609 82.9928L86.1907 94.2551Z" fill="#7288AE"/>
<path d="M99.3387 77.9956L86.1908 94.2551L72.3396 82.9928L80.0536 72.7214L83.4525 75.6089C83.6371 75.7658 83.8508 75.8847 84.0815 75.9589C84.3121 76.0331 84.5551 76.0611 84.7965 76.0413C85.038 76.0215 85.2732 75.9543 85.4886 75.8436C85.7041 75.7328 85.8956 75.5807 86.0522 75.3958L91.0067 69.5569C91.3156 69.1882 91.7579 68.9566 92.237 68.9126C92.716 68.8687 93.193 69.0161 93.5638 69.3225L98.8912 73.5845C99.2129 73.8428 99.48 74.1626 99.677 74.5252C99.874 74.8877 99.9968 75.2859 100.038 75.6964C100.08 76.1069 100.04 76.5216 99.9196 76.9163C99.7994 77.3111 99.602 77.6779 99.3387 77.9956V77.9956Z" fill="#4DB381"/>
<path d="M62.4201 65.4228L58.1582 70.6011L54.0987 75.5876L50.881 72.9665C49.5385 71.8831 48.6747 70.3162 48.4755 68.6026C48.2762 66.8891 48.7574 65.1657 49.8155 63.8032C49.9967 63.5709 50.1925 63.3503 50.4015 63.1426C51.5671 62.0023 53.1138 61.3342 54.743 61.2673C56.3722 61.2004 57.9685 61.7395 59.2236 62.7804L62.4201 65.4228Z" fill="#FBC726"/>
<path d="M57.9131 70.9953L54.1413 75.6303L50.881 72.9665C49.5385 71.8832 48.6747 70.3162 48.4755 68.6026C48.2762 66.8891 48.7574 65.1657 49.8155 63.8032C49.9966 63.5688 49.6131 64.0057 49.8155 63.8032L57.9131 70.9953Z" fill="#F15E5D"/>
<path d="M323.789 70.3371C333.534 63.9085 337.71 53.0505 333.116 46.0851C328.521 39.1196 316.896 38.6844 307.151 45.113C297.405 51.5415 293.229 62.3995 297.824 69.365C302.418 76.3304 314.043 76.7656 323.789 70.3371Z" fill="#C2822B"/>
<path d="M324.985 66.2326C320.508 69.7607 315.064 71.8452 309.376 72.21C304.911 72.3698 300.948 71.1445 298.433 68.2783C293.106 62.3115 296.238 51.7099 305.54 44.603C310.952 40.4689 317.26 38.4338 322.587 38.6256C324.352 38.6053 326.102 38.9433 327.732 39.6191C329.362 40.2949 330.838 41.2945 332.07 42.5572C337.493 48.524 334.297 59.1257 324.985 66.2326Z" fill="#FFF4BF"/>
<path d="M324.985 66.2326C320.508 69.7607 315.064 71.8452 309.376 72.21C307.61 72.2311 305.858 71.8935 304.226 71.2177C302.594 70.5419 301.116 69.5419 299.882 68.2783C294.555 62.3116 297.698 51.7099 306.989 44.603C311.461 41.0807 316.896 38.9966 322.577 38.6256C324.341 38.6053 326.091 38.9433 327.721 39.6191C329.351 40.2949 330.827 41.2945 332.059 42.5572C337.493 48.524 334.297 59.1257 324.985 66.2326Z" fill="#FEE057"/>
<path d="M323.344 64.1761C319.276 67.4188 314.226 69.1811 309.024 69.1733C307.584 69.1862 306.157 68.9099 304.827 68.3609C303.496 67.8118 302.289 67.0011 301.278 65.9768C296.824 61.0329 299.498 52.2426 307.234 46.3291C310.961 43.3949 315.489 41.6566 320.222 41.3425C323.93 41.1934 327.211 42.2482 329.31 44.539C333.753 49.4723 331.1 58.2733 323.344 64.1761Z" fill="#DF9C26"/>
<path d="M322.012 64.1761C318.283 67.1083 313.757 68.8496 309.024 69.1733C307.584 69.1862 306.157 68.9099 304.827 68.3609C303.496 67.8118 302.289 67.0011 301.278 65.9768C296.824 61.0329 299.498 52.2426 307.234 46.3291C310.961 43.3949 315.489 41.6566 320.222 41.3425C321.661 41.3296 323.089 41.6059 324.419 42.155C325.75 42.7041 326.957 43.5148 327.968 44.539C332.422 49.4723 329.747 58.2733 322.012 64.1761Z" fill="#F8B518"/>
<path d="M318.059 48.6199C318.669 48.636 319.269 48.78 319.819 49.0424C320.37 49.3049 320.859 49.68 321.256 50.1436L322.321 49.1846L323.014 49.9198L322.001 50.8681C322.802 51.7439 323.259 52.8787 323.291 54.0646C323.277 54.5988 323.154 55.1245 322.931 55.6099C322.707 56.0953 322.388 56.5302 321.991 56.8882L320.734 55.535C321.066 55.1773 321.311 54.7467 321.447 54.2777C321.549 53.869 321.545 53.4411 321.435 53.0346C321.325 52.6281 321.113 52.2565 320.819 51.9549L317.047 55.471C317.629 56.5155 318.056 57.6389 318.315 58.806C318.398 59.3719 318.334 59.9497 318.129 60.4835C317.923 61.0173 317.584 61.4892 317.143 61.8534C316.635 62.4315 315.983 62.8651 315.253 63.1102C314.523 63.3553 313.742 63.4033 312.988 63.2492C312.005 62.9396 311.105 62.4114 310.356 61.7042L308.854 63.1L308.172 62.3648L309.663 60.969C308.363 59.385 307.944 57.872 308.406 56.43C308.756 55.4932 309.344 54.6635 310.111 54.022L311.379 55.3858C310.862 55.8816 310.455 56.4806 310.185 57.1439C310.055 57.6162 310.05 58.1144 310.172 58.5891C310.293 59.0638 310.537 59.4985 310.878 59.8502L315.14 55.9185C314.408 54.899 313.973 53.6967 313.883 52.445C313.89 51.9345 314.004 51.4311 314.217 50.967C314.429 50.5029 314.737 50.0882 315.118 49.7493C315.919 49.0111 316.971 48.607 318.059 48.6199V48.6199ZM315.811 52.6794C315.87 53.3699 316.105 54.0337 316.493 54.608L320.126 51.2197C319.886 50.9307 319.582 50.7014 319.238 50.5498C318.894 50.3982 318.52 50.3284 318.144 50.346C317.545 50.3967 316.98 50.6439 316.536 51.0492C316.296 51.2476 316.105 51.4992 315.979 51.784C315.854 52.0689 315.796 52.3791 315.811 52.6901V52.6794ZM314.192 61.555C314.689 61.4253 315.145 61.1683 315.513 60.8092C315.819 60.5537 316.054 60.223 316.194 59.8494C316.334 59.4758 316.375 59.0722 316.312 58.6782C316.179 58.0096 315.934 57.3683 315.587 56.7816L311.517 60.5748C311.832 60.966 312.247 61.2647 312.718 61.4392C313.189 61.6136 313.698 61.6574 314.192 61.5657V61.555Z" fill="#DF9C26"/>
<path d="M318.059 47.9167C318.669 47.9254 319.27 48.065 319.822 48.326C320.373 48.587 320.862 48.9634 321.256 49.4297L322.321 48.4707L323.014 49.2059L322.001 50.1542C322.8 51.0311 323.257 52.1652 323.291 53.3507C323.277 53.8849 323.154 54.4106 322.931 54.896C322.707 55.3814 322.387 55.8163 321.991 56.1743L320.733 54.8317C321.066 54.4696 321.31 54.0357 321.447 53.5638C321.549 53.1551 321.545 52.7273 321.435 52.3208C321.325 51.9142 321.113 51.5426 320.819 51.241L317.047 54.7572C317.626 55.7991 318.053 56.9186 318.315 58.0815C318.398 58.6489 318.334 59.2282 318.129 59.7637C317.923 60.2992 317.584 60.773 317.143 61.1395C316.631 61.7157 315.977 62.1471 315.245 62.3903C314.514 62.6334 313.732 62.6798 312.977 62.5246C311.994 62.2151 311.094 61.6869 310.345 60.9797L308.843 62.3755L308.161 61.6403L309.653 60.2445C308.353 58.6604 307.934 57.1474 308.395 55.7055C308.745 54.7687 309.333 53.9389 310.1 53.2974L311.368 54.6613C310.839 55.1621 310.422 55.7683 310.143 56.4406C310.012 56.913 310.008 57.4112 310.129 57.8859C310.251 58.3606 310.494 58.7953 310.835 59.147L315.097 55.2153C314.367 54.1988 313.932 53.0005 313.84 51.7525C313.848 51.2333 313.967 50.7218 314.187 50.2516C314.407 49.7815 314.725 49.3634 315.118 49.0248C315.918 48.2886 316.972 47.8914 318.059 47.9167V47.9167ZM315.811 51.9656C315.87 52.6594 316.105 53.3267 316.493 53.9048L320.126 50.5058C319.884 50.2187 319.58 49.9907 319.237 49.8393C318.893 49.6878 318.519 49.617 318.144 49.6321C317.545 49.6828 316.98 49.93 316.535 50.3353C316.298 50.5337 316.11 50.7837 315.984 51.0663C315.858 51.3489 315.799 51.6565 315.811 51.9656V51.9656ZM314.191 60.8411C314.689 60.7114 315.144 60.4544 315.513 60.0953C315.819 59.8398 316.054 59.5091 316.194 59.1355C316.334 58.7619 316.375 58.3583 316.312 57.9643C316.179 57.2957 315.934 56.6544 315.587 56.0677L311.517 59.8609C311.833 60.2502 312.248 60.5469 312.719 60.7194C313.19 60.892 313.699 60.934 314.191 60.8411Z" fill="#FEE057"/>
<path d="M282.39 310.086C293.448 303.938 294.45 284.633 284.629 266.966C274.808 249.299 257.882 239.96 246.824 246.107C235.767 252.254 234.764 271.56 244.585 289.227C254.406 306.894 271.332 316.233 282.39 310.086Z" fill="#C2822B"/>
<path d="M284.625 305.405C278.509 308.804 270.422 307.056 262.846 301.579C256.857 297.077 251.913 291.33 248.356 284.734C238.767 267.516 239.491 248.837 249.943 243.02C256.709 239.269 265.926 241.805 274.119 248.731C279.016 252.934 283.112 257.988 286.212 263.648C295.791 280.898 295.077 299.598 284.625 305.405Z" fill="#FFF4BF"/>
<path d="M284.625 305.405C278.509 308.803 270.422 307.056 262.846 301.579C257.95 297.376 253.853 292.323 250.753 286.662C241.164 269.433 241.889 250.755 252.351 244.948C258.457 241.549 266.544 243.297 274.119 248.773C279.016 252.977 283.112 258.03 286.212 263.69C295.791 280.898 295.077 299.598 284.625 305.405Z" fill="#FEE057"/>
<path d="M282.089 300.535C273.405 305.362 259.895 297.637 251.915 283.285L251.467 282.454C244.009 268.336 244.669 253.28 253.193 248.55C261.717 243.819 274.876 251.149 282.909 264.98L283.367 265.8C291.38 280.163 290.815 295.709 282.089 300.535Z" fill="#C2822B"/>
<path d="M281.215 298.905C272.691 303.646 259.533 296.295 251.499 282.454C244.041 268.336 244.701 253.28 253.225 248.55C261.749 243.819 274.907 251.149 282.941 264.98C290.453 279.108 289.739 294.174 281.215 298.905Z" fill="#F8B518"/>
<path d="M267.055 274.228C265.294 273.767 263.647 272.948 262.218 271.82C261.14 270.907 260.315 269.733 259.82 268.411C259.528 267.676 259.393 266.888 259.426 266.098C259.459 265.475 259.674 264.875 260.044 264.372C260.511 263.766 261.174 263.34 261.919 263.168C262.646 263.027 263.385 262.963 264.125 262.977L263.453 261.133L264.881 261.229L265.563 263.094C267.06 263.253 268.51 263.713 269.825 264.447C271.848 265.507 273.411 267.274 274.215 269.412L270.262 269.156C269.996 268.501 269.637 267.887 269.196 267.334C268.554 266.64 267.677 266.207 266.735 266.12L268.653 271.383C270.568 271.978 272.423 272.752 274.193 273.695C275.826 274.666 277.073 276.172 277.72 277.957C278.573 280.28 278.264 281.9 276.793 282.837C275.696 283.463 274.444 283.766 273.181 283.711L274.247 286.492L272.787 286.396L271.775 283.647C270.089 283.428 268.451 282.931 266.927 282.177C264.778 280.949 263.172 278.955 262.431 276.594L266.479 276.849C266.844 277.705 267.329 278.505 267.918 279.225C268.673 279.943 269.628 280.414 270.656 280.579L268.525 274.676L267.055 274.228ZM267.055 270.914L265.286 266.056C264.423 266.056 263.848 266.194 263.581 266.578C263.447 266.831 263.377 267.112 263.377 267.398C263.377 267.684 263.447 267.966 263.581 268.219C263.885 269.016 264.453 269.686 265.19 270.115C265.772 270.445 266.386 270.713 267.023 270.914H267.055ZM270.017 275.176L271.988 280.589C272.53 280.612 273.068 280.475 273.533 280.195C274.012 279.811 274.055 279.129 273.682 278.064C273.385 277.261 272.83 276.579 272.105 276.125C271.434 275.737 270.723 275.423 269.985 275.187L270.017 275.176Z" fill="#C2822B"/>
<path d="M266.405 273.706C264.644 273.246 262.997 272.426 261.568 271.298C260.484 270.391 259.657 269.215 259.17 267.888C258.873 267.156 258.738 266.367 258.776 265.576C258.803 264.952 259.019 264.35 259.394 263.85C259.861 263.244 260.524 262.818 261.269 262.646C261.996 262.504 262.735 262.44 263.475 262.454L262.793 260.611L264.221 260.707L264.903 262.572C266.4 262.732 267.849 263.192 269.164 263.925C271.189 264.98 272.75 266.749 273.544 268.89L269.601 268.634C269.334 267.98 268.976 267.366 268.536 266.812C267.889 266.118 267.009 265.686 266.064 265.598L267.992 270.861C269.908 271.456 271.763 272.23 273.533 273.173C275.166 274.141 276.41 275.648 277.049 277.435C277.901 279.758 277.592 281.378 276.122 282.315C275.026 282.936 273.779 283.239 272.521 283.189L273.533 285.97L272.084 285.874L271.072 283.125C269.385 282.908 267.747 282.411 266.224 281.655C264.076 280.423 262.468 278.431 261.717 276.071L265.776 276.327C266.144 277.182 266.628 277.981 267.215 278.703C267.971 279.419 268.925 279.89 269.953 280.056L267.822 274.154L266.405 273.706ZM266.405 270.382L264.626 265.534C263.763 265.534 263.198 265.672 262.931 266.056C262.796 266.308 262.725 266.59 262.725 266.876C262.725 267.163 262.796 267.444 262.931 267.697C263.239 268.495 263.811 269.164 264.551 269.593C265.127 269.924 265.738 270.188 266.373 270.382H266.405ZM269.367 274.644L271.338 280.046C271.879 280.069 272.416 279.936 272.883 279.662C273.362 279.279 273.405 278.597 273.021 277.531C272.727 276.718 272.168 276.028 271.434 275.571C270.757 275.196 270.043 274.892 269.303 274.665L269.367 274.644Z" fill="#FEE057"/>
<path d="M64.583 40.1178C68.3094 30.0708 58.3956 17.1285 42.4399 11.2104C26.4842 5.29222 10.5288 8.63931 6.80239 18.6863C3.07601 28.7333 12.9898 41.6756 28.9455 47.5937C44.9011 53.5119 60.8566 50.1648 64.583 40.1178Z" fill="#C2822B"/>
<path d="M64.1675 38.9665C64.0397 50.0796 50.4762 56.0784 33.8335 52.4344C31.2923 51.8633 28.7988 51.0974 26.3752 50.1436V50.1436C13.419 45.0398 3.90434 35.0348 4.00023 25.6478C4.11743 14.524 17.6809 8.51462 34.2916 12.1906C36.2368 12.6231 38.1545 13.171 40.0346 13.8314C53.8751 18.6901 64.2634 29.1746 64.1675 38.9665Z" fill="#FFF4BF"/>
<path d="M62.3882 38.3059C62.2603 49.419 48.7501 55.4497 32.0861 51.8164C30.151 51.3725 28.244 50.8139 26.3752 50.1436V50.1436C13.419 45.0398 3.90434 35.0348 4.00023 25.6478C4.11743 14.524 17.6809 8.51462 34.2916 12.1906C36.2368 12.6231 38.1545 13.171 40.0345 13.8314C53.012 18.9352 62.4841 28.9402 62.3882 38.3059Z" fill="#FEE057"/>
<path d="M58.6588 37.8158C58.5842 46.9897 47.3435 51.9549 33.5776 48.897C27.2303 47.5193 21.3159 44.6114 16.3489 40.4263C11.6501 36.3561 8.75203 31.4548 8.79465 26.7453C8.87989 17.5714 20.11 12.6061 33.8333 15.6641C40.6455 17.1242 46.9477 20.3673 52.0955 25.0618C56.2082 28.9402 58.7014 33.4579 58.6588 37.8158Z" fill="#DF9C26"/>
<path d="M58.6588 37.8158C58.5842 46.9897 47.3435 51.9549 33.5776 48.897C27.2303 47.5193 21.3159 44.6114 16.3489 40.4263C12.2575 36.5479 9.78556 32.0301 9.82818 27.6403C9.90276 18.4983 21.1435 13.5438 34.8988 16.655C41.2469 18.0242 47.1625 20.929 52.1275 25.1151C56.2082 28.9402 58.7014 33.4579 58.6588 37.8158Z" fill="#F8B518"/>
<path d="M35.08 31.1458C36.4657 30.4564 37.9777 30.0576 39.5231 29.9737C40.7194 29.9488 41.9016 30.2351 42.9539 30.8048C43.5522 31.1002 44.0766 31.5262 44.4882 32.0514C44.8231 32.4646 45.0238 32.9701 45.0635 33.5005C45.1079 34.1453 44.9271 34.7855 44.5521 35.3118C44.1718 35.8141 43.7357 36.2717 43.2522 36.6757L44.7119 37.4748L43.753 38.21L42.272 37.4109C41.2295 38.1399 40.0524 38.6542 38.8092 38.9239C36.9287 39.3866 34.9434 39.136 33.2368 38.2207L35.8898 36.1749C36.4386 36.4389 37.0241 36.6185 37.6265 36.7076C38.4249 36.7858 39.2243 36.5699 39.8747 36.1003L35.6873 33.8308C34.1369 34.5244 32.5244 35.0703 30.8714 35.461C29.3033 35.7717 27.6759 35.5268 26.2686 34.7684C24.4253 33.7669 23.7008 32.5629 24.1376 31.1458C24.4819 30.1303 25.1061 29.2327 25.9383 28.5566L23.7114 27.31L24.6917 26.5535L26.8226 27.7362C28.0196 26.9256 29.3454 26.324 30.7436 25.9568C32.8059 25.543 34.9484 25.9236 36.7422 27.0223L34.0146 29.1533C33.3209 28.7973 32.5827 28.5358 31.8197 28.3755C30.9367 28.344 30.0646 28.5778 29.3158 29.0467L34.0039 31.5933L35.08 31.1458ZM36.9659 33.2767L40.8229 35.4077C41.3876 34.9496 41.654 34.5234 41.6114 34.1291C41.5626 33.8896 41.4539 33.6662 41.2956 33.4799C41.1372 33.2936 40.9343 33.1504 40.7057 33.0636C40.0525 32.7173 39.2995 32.6081 38.5748 32.7547C38.0216 32.8613 37.4819 33.0293 36.9659 33.2554V33.2767ZM32.704 32.2113L28.4421 29.8778C28.0943 30.1566 27.829 30.525 27.675 30.9433C27.5897 31.4547 27.9627 31.9342 28.7405 32.3817C29.3916 32.7336 30.1418 32.8574 30.8714 32.7333C31.4924 32.6154 32.0994 32.4333 32.6827 32.1899L32.704 32.2113Z" fill="#C2822B"/>
<path d="M35.7939 31.1138C37.1759 30.4247 38.6843 30.0259 40.2263 29.9417C41.4245 29.9184 42.6089 30.2007 43.6677 30.7622C44.2635 31.0662 44.7896 31.4907 45.2127 32.0088C45.5461 32.4269 45.7465 32.9354 45.788 33.4685C45.8339 34.1151 45.6489 34.7569 45.266 35.2799C44.8901 35.7825 44.4575 36.2402 43.9767 36.6437L45.4364 37.4322L44.4775 38.178L42.9965 37.3682C41.9563 38.1036 40.7786 38.6218 39.5337 38.8919C37.6532 39.3556 35.6676 39.105 33.9613 38.1887L36.6143 36.1323C37.1574 36.4033 37.74 36.5867 38.3404 36.6757C39.1388 36.7549 39.9386 36.5388 40.5885 36.0683L36.4119 33.7882C34.859 34.4878 33.2428 35.0372 31.5853 35.429C30.0172 35.7458 28.3879 35.5125 26.9718 34.7684C25.125 33.7669 24.4146 32.5557 24.8408 31.1351C25.1842 30.1221 25.8088 29.2278 26.6415 28.5566L24.4253 27.31L25.4055 26.5428L27.5897 27.7361C28.7865 26.9296 30.1075 26.3249 31.5 25.9461C33.5625 25.5377 35.7031 25.9179 37.4987 27.0116L34.771 29.1426C34.0611 28.7832 33.3044 28.525 32.5229 28.3754C31.6433 28.3442 30.7747 28.5781 30.0297 29.0467L34.7178 31.5719L35.7939 31.1138ZM37.6798 33.2448L41.5261 35.3758C42.1015 34.9176 42.3679 34.4914 42.3252 34.0865C42.2826 33.6816 41.9736 33.3407 41.4089 33.021C40.7575 32.6694 40.0025 32.56 39.278 32.712C38.7281 32.8184 38.192 32.9864 37.6798 33.2128V33.2448ZM33.4179 32.1793L29.156 29.8458C28.8108 30.1271 28.5462 30.4947 28.3889 30.9113C28.3036 31.4228 28.6659 31.9022 29.4543 32.3498C30.1052 32.7024 30.8556 32.8263 31.5853 32.7014C32.2072 32.5822 32.8144 32.3965 33.3966 32.1473L33.4179 32.1793Z" fill="#FEE057"/>
<path d="M309.855 135.202C309.855 141.767 307.295 148.074 302.719 152.781C298.143 157.488 291.911 160.226 285.349 160.412H284.603C281.248 160.481 277.914 159.88 274.794 158.643C271.675 157.407 268.833 155.561 266.436 153.213C264.039 150.864 262.135 148.061 260.835 144.968C259.535 141.874 258.865 138.552 258.865 135.197C258.865 131.841 259.535 128.519 260.835 125.426C262.135 122.332 264.039 119.529 266.436 117.181C268.833 114.833 271.675 112.986 274.794 111.75C277.914 110.514 281.248 109.913 284.603 109.982H285.349C291.913 110.168 298.146 112.907 302.722 117.616C307.299 122.326 309.858 128.635 309.855 135.202Z" fill="#FFF4BF"/>
<path d="M309.855 135.202C309.719 140.017 308.167 144.685 305.393 148.623C302.618 152.561 298.745 155.594 294.257 157.343C289.769 159.092 284.865 159.48 280.158 158.458C275.451 157.435 271.149 155.048 267.791 151.595C264.433 148.142 262.167 143.775 261.276 139.042C260.385 134.308 260.909 129.416 262.782 124.978C264.656 120.541 267.796 116.753 271.809 114.09C275.823 111.427 280.532 110.005 285.349 110.003C291.91 110.189 298.139 112.925 302.715 117.63C307.291 122.335 309.852 128.639 309.855 135.202V135.202Z" fill="#FEE057"/>
<path d="M305.625 135.202C305.625 140.769 303.414 146.108 299.477 150.045C295.541 153.981 290.202 156.192 284.635 156.192H283.772C278.351 155.981 273.223 153.678 269.462 149.768C265.702 145.858 263.601 140.643 263.601 135.218C263.601 129.793 265.702 124.578 269.462 120.668C273.223 116.758 278.351 114.456 283.772 114.244H284.635C290.197 114.244 295.531 116.451 299.466 120.38C303.401 124.31 305.617 129.641 305.625 135.202Z" fill="#DF9C26"/>
<path d="M283.772 156.171C294.888 156.171 303.899 146.783 303.899 135.202C303.899 123.621 294.888 114.233 283.772 114.233C272.656 114.233 263.645 123.621 263.645 135.202C263.645 146.783 272.656 156.171 283.772 156.171Z" fill="#F8B518"/>
<path d="M282.59 135.905C281.018 135.556 279.593 134.73 278.509 133.54C277.702 132.5 277.281 131.212 277.316 129.896C277.306 129.021 277.465 128.153 277.784 127.339C278.071 126.595 278.51 125.92 279.074 125.357C279.734 124.671 280.554 124.158 281.46 123.865C282.229 123.655 283.019 123.53 283.815 123.492V121.479H285.285V123.524C286.66 123.568 287.997 123.984 289.153 124.728C290.012 125.299 290.708 126.083 291.174 127.004C291.639 127.925 291.857 128.951 291.806 129.981H287.821C287.796 129.306 287.644 128.641 287.374 128.021C287.161 127.647 286.85 127.339 286.474 127.131C286.098 126.922 285.672 126.821 285.243 126.838V132.602C286.949 133.105 288.578 133.844 290.08 134.797C290.756 135.324 291.294 136.005 291.65 136.784C292.006 137.564 292.17 138.417 292.126 139.272C292.206 140.363 291.988 141.456 291.494 142.432C291 143.408 290.25 144.231 289.323 144.813C288.091 145.55 286.698 145.978 285.264 146.06V149.096H283.804V146.092C282.239 146 280.716 145.552 279.351 144.781C277.625 143.63 276.783 141.648 276.804 138.857H280.896C280.941 139.737 281.139 140.602 281.482 141.414C281.751 141.787 282.099 142.097 282.5 142.323C282.901 142.549 283.346 142.686 283.804 142.725V136.268L282.59 135.905ZM283.815 132.176V126.849C283.458 126.829 283.1 126.882 282.764 127.002C282.427 127.123 282.118 127.31 281.854 127.552C281.416 128.058 281.19 128.715 281.226 129.385C281.211 129.772 281.29 130.157 281.455 130.507C281.62 130.857 281.866 131.163 282.174 131.398C282.672 131.75 283.227 132.013 283.815 132.176V132.176ZM285.253 136.768V142.682C285.868 142.645 286.464 142.458 286.99 142.139C287.331 141.844 287.596 141.471 287.761 141.052C287.927 140.632 287.987 140.179 287.938 139.731C287.955 139.343 287.884 138.957 287.731 138.601C287.578 138.245 287.346 137.928 287.054 137.674C286.515 137.283 285.918 136.977 285.285 136.768H285.253Z" fill="#DF9C26"/>
<path d="M281.78 135.33C280.209 134.978 278.785 134.153 277.699 132.965C276.898 131.922 276.481 130.635 276.516 129.321C276.503 128.447 276.658 127.578 276.974 126.763C277.269 126.021 277.711 125.347 278.274 124.782C278.935 124.095 279.755 123.583 280.661 123.29C281.427 123.085 282.213 122.96 283.005 122.917V120.903H284.443V122.949C285.821 122.991 287.162 123.407 288.322 124.153C289.181 124.724 289.876 125.508 290.339 126.429C290.802 127.35 291.018 128.376 290.964 129.406H286.99C286.96 128.73 286.805 128.065 286.532 127.445C286.319 127.072 286.008 126.764 285.632 126.555C285.256 126.347 284.83 126.245 284.401 126.263V132.027C286.112 132.528 287.743 133.267 289.249 134.222C289.924 134.751 290.461 135.434 290.816 136.215C291.17 136.996 291.331 137.851 291.284 138.708C291.366 139.796 291.149 140.886 290.657 141.861C290.165 142.835 289.417 143.657 288.492 144.238C287.262 144.98 285.868 145.408 284.433 145.484V148.521H282.962V145.516C281.402 145.423 279.884 144.978 278.519 144.216C276.793 143.051 275.944 141.073 275.973 138.281H280.054C280.101 139.162 280.303 140.028 280.65 140.839C280.916 141.214 281.26 141.526 281.66 141.752C282.06 141.979 282.504 142.114 282.962 142.149V135.692L281.78 135.33ZM283.005 131.601V126.273C282.65 126.255 282.294 126.308 281.959 126.428C281.624 126.549 281.317 126.735 281.055 126.977C280.609 127.479 280.379 128.138 280.416 128.809C280.401 129.197 280.48 129.584 280.647 129.934C280.814 130.285 281.064 130.59 281.375 130.823C281.867 131.178 282.42 131.441 283.005 131.601V131.601ZM284.443 136.193V142.107C285.061 142.069 285.661 141.883 286.191 141.563C286.53 141.267 286.793 140.894 286.958 140.475C287.123 140.056 287.185 139.603 287.139 139.155C287.157 138.767 287.085 138.38 286.93 138.023C286.775 137.667 286.54 137.35 286.244 137.099C285.695 136.704 285.088 136.398 284.443 136.193Z" fill="#FEE057"/>
<path d="M202.86 18.9884C202.862 22.3695 201.545 25.6179 199.189 28.0432C196.833 30.4686 193.625 31.8797 190.245 31.9768H189.861C186.417 31.9768 183.113 30.6084 180.677 28.1726C178.242 25.7368 176.873 22.4331 176.873 18.9884C176.873 15.5437 178.242 12.24 180.677 9.80422C183.113 7.36842 186.417 6 189.861 6L190.245 6C193.625 6.09708 196.833 7.50823 199.189 9.93359C201.545 12.3589 202.862 15.6073 202.86 18.9884V18.9884Z" fill="#FFF4BF"/>
<path d="M202.86 18.9884C202.787 21.4663 201.985 23.8677 200.555 25.8927C199.125 27.9177 197.13 29.4764 194.82 30.3743C192.509 31.2722 189.985 31.4695 187.563 30.9414C185.141 30.4133 182.928 29.1834 181.201 27.4051C179.474 25.6269 178.309 23.3791 177.852 20.9427C177.394 18.5063 177.665 15.9891 178.63 13.7055C179.595 11.422 181.211 9.47334 183.277 8.10293C185.342 6.73251 187.766 6.00108 190.245 6C193.625 6.09708 196.833 7.50823 199.189 9.93359C201.544 12.3589 202.862 15.6073 202.86 18.9884V18.9884Z" fill="#FEE057"/>
<path d="M200.676 18.9885C200.677 20.4091 200.398 21.816 199.855 23.1287C199.312 24.4415 198.516 25.6343 197.511 26.6388C196.507 27.6433 195.314 28.4399 194.001 28.9829C192.689 29.5259 191.282 29.8046 189.861 29.8032H189.392C186.61 29.6796 183.983 28.4873 182.058 26.4747C180.132 24.4621 179.058 21.7843 179.058 18.9991C179.058 16.2139 180.132 13.5361 182.058 11.5235C183.983 9.51087 186.61 8.31857 189.392 8.19497H189.829C191.251 8.18936 192.659 8.46433 193.974 9.00411C195.289 9.54389 196.485 10.3379 197.493 11.3406C198.5 12.3432 199.3 13.5349 199.846 14.8473C200.393 16.1597 200.674 17.5669 200.676 18.9885V18.9885Z" fill="#DF9C26"/>
<path d="M189.424 29.7926C195.15 29.7926 199.791 24.9554 199.791 18.9885C199.791 13.0215 195.15 8.18433 189.424 8.18433C183.699 8.18433 179.057 13.0215 179.057 18.9885C179.057 24.9554 183.699 29.7926 189.424 29.7926Z" fill="#F8B518"/>
<path d="M188.806 19.3507C187.99 19.1707 187.247 18.7472 186.676 18.136C186.264 17.5949 186.05 16.9296 186.068 16.2501C186.061 15.8022 186.14 15.3571 186.303 14.9396C186.45 14.5415 186.678 14.1786 186.974 13.8741C187.311 13.5189 187.732 13.255 188.199 13.1069C188.596 13.0017 189.003 12.9375 189.414 12.9151V11.8496H190.149V12.9151C190.858 12.9395 191.547 13.1569 192.141 13.5437C192.586 13.8362 192.947 14.2397 193.188 14.7144C193.429 15.189 193.542 15.7184 193.516 16.2501H191.523C191.511 15.9007 191.432 15.557 191.289 15.2379C191.183 15.0497 191.028 14.8938 190.84 14.7869C190.653 14.6799 190.439 14.6259 190.224 14.6306V17.5926C191.091 17.8779 191.915 18.2793 192.674 18.786C193.024 19.0581 193.303 19.4101 193.488 19.8124C193.674 20.2147 193.76 20.6556 193.74 21.0981C193.781 21.6597 193.669 22.2219 193.415 22.7248C193.162 23.2277 192.777 23.6524 192.301 23.9537C191.653 24.3366 190.922 24.556 190.17 24.593V26.1592H189.414V24.593C188.608 24.5542 187.822 24.3241 187.123 23.9217C186.669 23.5732 186.313 23.1135 186.089 22.5871C185.865 22.0608 185.781 21.4855 185.844 20.917H187.975C188 21.3721 188.105 21.8194 188.284 22.2382C188.42 22.4335 188.598 22.596 188.804 22.714C189.01 22.832 189.241 22.9024 189.478 22.9201V19.5318L188.806 19.3507ZM189.446 17.4328V14.6945C189.253 14.6763 189.058 14.6991 188.874 14.7616C188.691 14.824 188.522 14.9246 188.38 15.0568C188.156 15.3198 188.041 15.6596 188.061 16.005C188.047 16.2095 188.084 16.4141 188.17 16.6002C188.256 16.7864 188.387 16.9481 188.551 17.0705C188.825 17.244 189.128 17.3667 189.446 17.4328V17.4328ZM190.181 19.7982V22.8455C190.499 22.8258 190.806 22.7269 191.076 22.5579C191.252 22.4076 191.389 22.2164 191.475 22.0009C191.56 21.7854 191.592 21.5523 191.566 21.3219C191.575 21.1212 191.538 20.9212 191.459 20.7366C191.38 20.5521 191.26 20.3879 191.108 20.2564C190.821 20.0754 190.509 19.9388 190.181 19.8515V19.7982Z" fill="#DF9C26"/>
<path d="M188.402 19.0524C187.582 18.8789 186.838 18.4543 186.271 17.8377C185.861 17.2999 185.647 16.6384 185.663 15.9624C185.655 15.511 185.735 15.0622 185.898 14.6412C186.045 14.2432 186.274 13.8803 186.569 13.5757C186.909 13.2241 187.33 12.9607 187.794 12.8086C188.192 12.7034 188.599 12.6391 189.009 12.6168V11.5513H189.744V12.6168C190.456 12.635 191.149 12.8488 191.747 13.2348C192.189 13.5292 192.548 13.9334 192.787 14.4078C193.026 14.8822 193.137 15.4105 193.111 15.9411H191.055C191.048 15.5739 190.968 15.2117 190.82 14.8756C190.714 14.6874 190.559 14.5316 190.372 14.4246C190.184 14.3176 189.971 14.2636 189.755 14.2683V17.241C190.635 17.4978 191.474 17.8781 192.248 18.3704C192.598 18.6397 192.878 18.9897 193.063 19.3904C193.249 19.7911 193.335 20.2308 193.314 20.6719C193.355 21.2335 193.243 21.7957 192.989 22.2986C192.736 22.8015 192.351 23.2262 191.875 23.5275C191.227 23.9104 190.496 24.1298 189.744 24.1668V25.733H188.988V24.3053C188.183 24.2577 187.4 24.0282 186.697 23.634C186.232 23.2822 185.866 22.8151 185.636 22.2788C185.406 21.7426 185.32 21.1557 185.386 20.576H187.517C187.543 21.0276 187.648 21.4712 187.826 21.8866C187.962 22.0819 188.14 22.2444 188.346 22.3624C188.552 22.4803 188.783 22.5508 189.02 22.5685V19.2442L188.402 19.0524ZM189.03 17.1345V14.3961C188.658 14.3793 188.295 14.5094 188.018 14.7584C187.795 15.0226 187.681 15.3615 187.698 15.7067C187.684 15.9112 187.721 16.1162 187.806 16.3025C187.892 16.4888 188.024 16.6504 188.189 16.7722C188.444 16.9441 188.73 17.067 189.03 17.1345V17.1345ZM189.766 19.4999V22.5472C190.081 22.525 190.387 22.4301 190.66 22.2702C190.838 22.1177 190.976 21.9248 191.063 21.7079C191.15 21.4909 191.184 21.2562 191.161 21.0235C191.171 20.8217 191.134 20.6203 191.053 20.4354C190.971 20.2504 190.848 20.087 190.692 19.958C190.409 19.7579 190.096 19.6033 189.766 19.4999V19.4999Z" fill="#FEE057"/>
<path d="M91.0276 64.3353L84.3179 59.0438C83.4723 58.377 82.2463 58.5219 81.5795 59.3675L76.2881 66.0773C75.6213 66.9229 75.7662 68.1489 76.6117 68.8158L83.3214 74.1073C84.167 74.7741 85.393 74.6292 86.0598 73.7836L91.3512 67.0738C92.018 66.2282 91.8731 65.0022 91.0276 64.3353Z" fill="#F15E5D"/>
<path d="M210.585 184.609C206.419 183.821 201.763 185.984 200.995 189.265C200.548 191.077 201.155 192.984 200.559 194.774C200.22 195.712 199.696 196.572 199.019 197.304C198.342 198.036 197.525 198.625 196.616 199.036C194.747 199.864 192.691 200.177 190.66 199.942C188.529 199.718 186.601 198.759 184.417 198.514C180.304 198.045 175.893 200.997 175.563 204.182C175.094 208.444 180.4 212.238 185.525 212.291C189.346 212.322 193.15 212.819 196.851 213.772C198.737 214.267 200.585 214.898 202.381 215.658C204.088 216.55 205.958 217.09 207.878 217.245H207.964C211.576 217.363 215.422 215.189 216.487 212.493V212.429C217.223 210.394 216.487 208.626 216.061 206.548C215.372 202.423 215.917 198.186 217.628 194.369C219.375 189.979 215.347 185.515 210.585 184.609Z" fill="#EEEDEE"/>
<path d="M198.259 191.448C198.968 187.402 195.375 183.392 190.234 182.491C185.093 181.59 180.35 184.14 179.641 188.185C178.932 192.231 182.525 196.241 187.666 197.142C192.807 198.043 197.55 195.494 198.259 191.448Z" fill="#EEEDEE"/>
</svg>
